<svg width="22" height="22" viewBox="0 0 22 22" fill="none" xmlns="http://www.w3.org/2000/svg">
	<path d="M17.9225 4.64541C16.6558 4.05491 15.2844 3.62633 13.8557 3.37871C13.8432 3.37831 13.8308 3.38066 13.8192 3.38559C13.8077 3.39053 13.7974 3.39793 13.7891 3.40728C13.6176 3.72157 13.4176 4.13111 13.2843 4.4454C11.769 4.21682 10.228 4.21682 8.71275 4.4454C8.57941 4.12158 8.37941 3.72157 8.19845 3.40728C8.18893 3.38823 8.16035 3.37871 8.13178 3.37871C6.70317 3.62633 5.34123 4.05491 4.065 4.64541C4.05548 4.64541 4.04595 4.65493 4.03643 4.66446C1.44588 8.54075 0.731577 12.3123 1.08397 16.0457C1.08397 16.0648 1.09349 16.0838 1.11254 16.0933C2.82687 17.3505 4.47454 18.1124 6.10315 18.6172C6.13173 18.6267 6.1603 18.6172 6.16982 18.5982C6.55078 18.0743 6.89365 17.522 7.1889 16.941C7.20795 16.9029 7.1889 16.8648 7.1508 16.8553C6.60793 16.6457 6.09363 16.3981 5.58885 16.1124C5.55076 16.0933 5.55076 16.0362 5.57933 16.0076C5.68409 15.9314 5.78886 15.8457 5.89362 15.7695C5.91267 15.7505 5.94124 15.7505 5.96029 15.76C9.23657 17.2553 12.77 17.2553 16.0082 15.76C16.0272 15.7505 16.0558 15.7505 16.0749 15.7695C16.1796 15.8552 16.2844 15.9314 16.3891 16.0171C16.4272 16.0457 16.4272 16.1029 16.3796 16.1219C15.8844 16.4172 15.3605 16.6553 14.8177 16.8648C14.7796 16.8743 14.7701 16.9219 14.7796 16.9505C15.0844 17.5315 15.4272 18.0839 15.7987 18.6077C15.8272 18.6172 15.8558 18.6267 15.8844 18.6172C17.5225 18.1124 19.1702 17.3505 20.8845 16.0933C20.9036 16.0838 20.9131 16.0648 20.9131 16.0457C21.3321 11.7313 20.2178 7.98836 17.9606 4.66446C17.9511 4.65493 17.9416 4.64541 17.9225 4.64541ZM7.68415 13.7695C6.70317 13.7695 5.8841 12.8647 5.8841 11.7504C5.8841 10.636 6.68412 9.73126 7.68415 9.73126C8.6937 9.73126 9.49372 10.6456 9.4842 11.7504C9.4842 12.8647 8.68418 13.7695 7.68415 13.7695ZM14.3224 13.7695C13.3414 13.7695 12.5224 12.8647 12.5224 11.7504C12.5224 10.636 13.3224 9.73126 14.3224 9.73126C15.332 9.73126 16.132 10.6456 16.1225 11.7504C16.1225 12.8647 15.332 13.7695 14.3224 13.7695Z" fill="white" />
</svg>
