<svg width="24" height="24" viewBox="0 0 24 24" fill="none" xmlns="http://www.w3.org/2000/svg">
	<path d="M11.9999 3.9165C10.8508 3.9165 9.713 4.14845 8.6514 4.59909C7.5898 5.04974 6.62521 5.71026 5.81269 6.54295C4.17175 8.22463 3.24988 10.5055 3.24988 12.8837C3.24988 16.8473 5.76113 20.21 9.23488 21.4026C9.67238 21.4744 9.81238 21.1964 9.81238 20.9543V19.4388C7.38863 19.9768 6.87238 18.2372 6.87238 18.2372C6.46988 17.197 5.90113 16.919 5.90113 16.919C5.10488 16.363 5.96238 16.381 5.96238 16.381C6.83738 16.4437 7.30113 17.3046 7.30113 17.3046C8.06238 18.6676 9.34863 18.2641 9.84738 18.0489C9.92613 17.466 10.1536 17.0714 10.3986 16.8473C8.45613 16.6231 6.41738 15.8519 6.41738 12.4354C6.41738 11.44 6.74988 10.6419 7.31863 10.0053C7.23113 9.78108 6.92488 8.84848 7.40613 7.63791C7.40613 7.63791 8.14113 7.39579 9.81238 8.55256C10.5036 8.35529 11.2561 8.25665 11.9999 8.25665C12.7436 8.25665 13.4961 8.35529 14.1874 8.55256C15.8586 7.39579 16.5936 7.63791 16.5936 7.63791C17.0749 8.84848 16.7686 9.78108 16.6811 10.0053C17.2499 10.6419 17.5824 11.44 17.5824 12.4354C17.5824 15.8609 15.5349 16.6141 13.5836 16.8383C13.8986 17.1163 14.1874 17.6633 14.1874 18.4972V20.9543C14.1874 21.1964 14.3274 21.4833 14.7736 21.4026C18.2474 20.201 20.7499 16.8473 20.7499 12.8837C20.7499 11.7061 20.5236 10.5401 20.0838 9.45213C19.6441 8.36417 18.9996 7.37563 18.1871 6.54295C17.3745 5.71026 16.41 5.04974 15.3484 4.59909C14.2868 4.14845 13.1489 3.9165 11.9999 3.9165Z" fill="white" />
</svg>
