<svg width="24" height="24" viewBox="0 0 24 24" fill="none" xmlns="http://www.w3.org/2000/svg">
	<path d="M22.0555 12.487C22.0555 11.3081 21.0987 10.3512 19.9197 10.3512C19.3388 10.3512 18.8262 10.5734 18.4503 10.9493C16.9979 9.90698 14.9817 9.22352 12.7605 9.13809L13.7344 4.57599L16.8954 5.24237C16.9296 6.04543 17.596 6.69472 18.4161 6.69472C19.2533 6.69472 19.9368 6.01126 19.9368 5.17402C19.9368 4.33678 19.2533 3.65332 18.4161 3.65332C17.8181 3.65332 17.3055 3.99505 17.0663 4.50765L13.5294 3.75584C13.4268 3.73875 13.3243 3.75584 13.2389 3.8071C13.1535 3.85836 13.1022 3.94379 13.068 4.04631L11.9916 9.13809C9.71907 9.20644 7.68578 9.87281 6.21634 10.9493C5.84043 10.5904 5.31075 10.3512 4.7469 10.3512C3.56793 10.3512 2.61108 11.3081 2.61108 12.487C2.61108 13.3585 3.12368 14.0932 3.87549 14.4349C3.84131 14.6399 3.82423 14.8621 3.82423 15.0842C3.82423 18.3648 7.63452 21.0132 12.3504 21.0132C17.0663 21.0132 20.8766 18.3648 20.8766 15.0842C20.8766 14.8621 20.8595 14.657 20.8253 14.452C21.5258 14.1103 22.0555 13.3585 22.0555 12.487ZM7.44657 14.0077C7.44657 13.1705 8.13003 12.487 8.96727 12.487C9.8045 12.487 10.488 13.1705 10.488 14.0077C10.488 14.845 9.8045 15.5284 8.96727 15.5284C8.13003 15.5284 7.44657 14.845 7.44657 14.0077ZM15.9386 18.0231C14.8963 19.0654 12.9142 19.1337 12.3333 19.1337C11.7524 19.1337 9.75324 19.0483 8.72805 18.0231C8.57428 17.8693 8.57428 17.613 8.72805 17.4592C8.88183 17.3054 9.13813 17.3054 9.29191 17.4592C9.9412 18.1085 11.3423 18.3477 12.3504 18.3477C13.3585 18.3477 14.7425 18.1085 15.4089 17.4592C15.5627 17.3054 15.819 17.3054 15.9727 17.4592C16.0923 17.6301 16.0923 17.8693 15.9386 18.0231ZM15.6652 15.5284C14.8279 15.5284 14.1445 14.845 14.1445 14.0077C14.1445 13.1705 14.8279 12.487 15.6652 12.487C16.5024 12.487 17.1859 13.1705 17.1859 14.0077C17.1859 14.845 16.5024 15.5284 15.6652 15.5284Z" fill="white" />
</svg>
