<svg width="22" height="22" viewBox="0 0 22 22" fill="none" xmlns="http://www.w3.org/2000/svg">
	<path d="M20.5 5.09647C19.8007 5.41435 19.0468 5.62324 18.2658 5.72315C19.065 5.24179 19.6826 4.47888 19.9732 3.56158C19.2194 4.01569 18.3838 4.33357 17.5029 4.51521C16.7854 3.73414 15.7772 3.28003 14.6329 3.28003C12.4986 3.28003 10.7548 5.02382 10.7548 7.1763C10.7548 7.4851 10.7911 7.78481 10.8547 8.06636C7.62142 7.90288 4.74235 6.34982 2.826 3.99752C2.48996 4.5697 2.29924 5.24179 2.29924 5.9502C2.29924 7.30345 2.9804 8.50231 4.03394 9.18347C3.3891 9.18347 2.78968 9.00183 2.26291 8.72936V8.75661C2.26291 10.6457 3.60707 12.226 5.38719 12.5802C4.81567 12.7366 4.21567 12.7584 3.63432 12.6438C3.881 13.418 4.36411 14.0955 5.01574 14.581C5.66737 15.0664 6.45476 15.3355 7.26721 15.3503C5.89001 16.4406 4.18288 17.0299 2.42639 17.0214C2.11759 17.0214 1.8088 17.0033 1.5 16.9669C3.22562 18.075 5.2782 18.7198 7.4761 18.7198C14.6329 18.7198 18.5655 12.78 18.5655 7.63041C18.5655 7.45785 18.5655 7.29437 18.5564 7.12181C19.3193 6.57687 19.9732 5.88663 20.5 5.09647Z" fill="white" />
</svg>
