<svg width="24" height="24" viewBox="0 0 24 24" fill="none" xmlns="http://www.w3.org/2000/svg">
	<path fill-rule="evenodd" clip-rule="evenodd" d="M19.9301 4.85043C20.7682 5.11487 21.4274 5.88487 21.65 6.86098C22.0554 8.63237 22.0554 12.3317 22.0554 12.3317C22.0554 12.3317 22.0554 16.031 21.65 17.8024C21.4244 18.7824 20.7653 19.5524 19.9301 19.8129C18.4144 20.2864 12.3332 20.2864 12.3332 20.2864C12.3332 20.2864 6.25485 20.2864 4.73624 19.8129C3.89818 19.5485 3.23902 18.7785 3.01638 17.8024C2.61096 16.031 2.61096 12.3317 2.61096 12.3317C2.61096 12.3317 2.61096 8.63237 3.01638 6.86098C3.24193 5.88098 3.9011 5.11098 4.73624 4.85043C6.25485 4.37695 12.3332 4.37695 12.3332 4.37695C12.3332 4.37695 18.4144 4.37695 19.9301 4.85043ZM15.4424 12.3332L10.3907 15.2499V9.41657L15.4424 12.3332Z" fill="white" />
</svg>
