<svg width="182" height="212" viewBox="0 0 182 212" fill="none" xmlns="http://www.w3.org/2000/svg">
	<path fill-rule="evenodd" clip-rule="evenodd" d="M33.3984 156.798H138.525V0H33.5338L33.3984 156.798Z" fill="url(#paint0_linear_52_1852)" />
	<path fill-rule="evenodd" clip-rule="evenodd" d="M85.4441 103.974C84.8707 103.965 84.3008 104.056 83.7593 104.244L48.8071 118.746C48.2952 118.958 47.8322 119.274 47.4489 119.675C47.0655 120.076 46.7709 120.553 46.5821 121.074L32.0897 156.049C31.8406 156.576 31.7109 157.153 31.7109 157.735C31.7109 158.318 31.8406 158.894 32.0897 159.422L46.5821 194.397C46.7732 194.906 47.0712 195.366 47.4546 195.751C47.8379 196.134 48.2986 196.432 48.8071 196.623L83.7593 211.126C84.2849 211.377 84.8616 211.503 85.4441 211.496C85.9946 211.504 86.5384 211.377 87.0287 211.126L121.981 196.623C122.502 196.434 122.979 196.139 123.379 195.755C123.779 195.372 124.096 194.909 124.306 194.397L138.8 159.422C139.193 158.332 139.193 157.139 138.8 156.049L124.306 121.074C124.098 120.548 123.784 120.071 123.383 119.67C122.984 119.27 122.506 118.956 121.981 118.746L87.0287 104.244C86.5236 104.051 85.9855 103.959 85.4441 103.974ZM85.4441 113.721L116.487 126.571L129.328 157.635L116.487 188.697L85.4441 201.615L54.4016 188.697L41.4597 157.635L54.4016 126.571L85.4441 113.721Z" fill="#202022" />
	<path fill-rule="evenodd" clip-rule="evenodd" d="M129.33 157.631L116.488 126.535L85.4453 113.719L54.4028 126.535L41.4609 157.631L54.4028 188.694L85.4453 201.612L116.488 188.694L129.33 157.631Z" fill="#202022" />
	<path fill-rule="evenodd" clip-rule="evenodd" d="M82.0075 164.213H102.837V173.893H68.0547V165.157L81.7049 149.981L68.1548 135.748V127.012H102.837V136.692H82.4796L95.1185 149.913L82.0075 164.213Z" fill="white" />
	<path d="M85.4514 96.7266C84.8724 96.7526 84.3025 96.8782 83.7667 97.0975L48.8145 111.6C48.3071 111.791 47.8453 112.089 47.4619 112.473C47.0786 112.857 46.7806 113.318 46.5894 113.826L32.0971 148.902C31.8628 149.393 31.7422 149.928 31.7422 150.471C31.7422 151.014 31.8628 151.549 32.0971 152.04L46.4893 187.25C46.6736 187.762 46.9694 188.226 47.3539 188.611C47.7384 188.995 48.2025 189.291 48.7132 189.476L83.6655 204.013C84.207 204.216 84.7746 204.342 85.3502 204.384C85.8951 204.348 86.4309 204.223 86.9348 204.013L121.887 189.476C122.411 189.293 122.89 189 123.292 188.617C123.692 188.232 124.007 187.767 124.212 187.25L138.706 152.174C139.076 151.161 139.076 150.05 138.706 149.038L124.212 113.961C124.002 113.448 123.685 112.986 123.285 112.602C122.885 112.219 122.408 111.924 121.887 111.735L86.9348 97.2324C86.4764 96.9717 85.9736 96.8002 85.4514 96.7266ZM85.4514 106.575L116.494 119.392L129.336 150.488L116.494 181.55L85.4514 194.367L54.4089 181.55L41.4671 150.488L54.4089 119.392L85.4514 106.575Z" fill="white" />
	<path d="M30.6831 59.3839C34.8361 59.3839 38.2021 56.0214 38.2021 51.8736C38.2021 47.7258 34.8361 44.3633 30.6831 44.3633C26.53 44.3633 23.1641 47.7258 23.1641 51.8736C23.1641 56.0214 26.53 59.3839 30.6831 59.3839Z" fill="white" />
	<path fill-rule="evenodd" clip-rule="evenodd" d="M168.176 129.711H178.123C179.944 129.711 181.496 132.169 181.496 135.201V152.039C181.496 155.071 180.045 157.529 178.123 157.529H168.176C166.389 157.529 164.805 155.071 164.805 152.039V135.201C164.94 132.169 166.255 129.711 168.176 129.711Z" fill="#FF5E18" />
	<path fill-rule="evenodd" clip-rule="evenodd" d="M8.77559 117.336H19.2624C20.2714 117.471 21.1871 117.993 21.8172 118.792C22.4463 119.59 22.7398 120.603 22.634 121.613V134.715C22.7398 135.725 22.4463 136.737 21.8172 137.536C21.1871 138.335 20.2714 138.857 19.2624 138.992H8.77559C7.76774 138.857 6.85091 138.335 6.22186 137.536C5.59168 136.737 5.29819 135.725 5.40398 134.715V121.613C5.29819 120.603 5.59168 119.59 6.22186 118.792C6.85091 117.993 7.76774 117.471 8.77559 117.336Z" fill="white" />
	<path fill-rule="evenodd" clip-rule="evenodd" d="M3.59616 170.664H11.688C13.1384 170.664 14.318 173.527 14.318 177.063V196.496C14.318 200.031 13.1384 202.895 11.688 202.895H3.59616C2.18007 202.895 1 200.031 1 196.496V177.063C1.06734 173.527 2.18007 170.664 3.59616 170.664Z" fill="#FF5E18" stroke="#FF5E18" stroke-width="0.771845" stroke-miterlimit="10" />
	<path fill-rule="evenodd" clip-rule="evenodd" d="M136.187 61.4258H147.988C149.086 61.5202 150.102 62.0437 150.815 62.8825C151.529 63.7213 151.882 64.8076 151.798 65.905V79.3764C151.882 80.4739 151.529 81.5601 150.815 82.3989C150.102 83.2377 149.086 83.7612 147.988 83.8557H136.187C135.092 83.7529 134.081 83.2269 133.37 82.3902C132.658 81.5533 132.302 80.472 132.377 79.3764V65.905C132.302 64.8096 132.658 63.7281 133.37 62.8912C134.081 62.0545 135.092 61.5286 136.187 61.4258Z" fill="#FF5E18" stroke="#FF5E18" stroke-width="0.771845" stroke-miterlimit="10" />
	<defs>
		<linearGradient id="paint0_linear_52_1852" x1="23.1605" y1="19.3378" x2="23.0764" y2="254.804" gradientUnits="userSpaceOnUse">
			<stop stop-color="#FF5E18" stop-opacity="0" />
			<stop offset="1" stop-color="#FF5E18" />
		</linearGradient>
	</defs>
</svg>
