<svg xmlns="http://www.w3.org/2000/svg" width="193" height="201" viewBox="0 0 193 201" fill="none">
	<path fill-rule="evenodd" clip-rule="evenodd" d="M66.9084 37.6167H140.808V168.099L66.9084 196.525V37.6167Z" fill="url(#paint0_linear_623_8999)" />
	<path d="M103.839 5.0957C103.443 5.1008 103.051 5.16781 102.675 5.29448L78.5981 15.5909C78.2497 15.7209 77.934 15.926 77.672 16.1941C77.4101 16.4622 77.2097 16.7852 77.0839 17.1417L67.0261 41.7908C66.8034 42.5427 66.8034 43.3456 67.0261 44.0976L77.0839 68.7855C77.2097 69.1514 77.4088 69.4865 77.6707 69.7666C77.9314 70.0481 78.247 70.2693 78.5981 70.4154L102.675 80.6329C103.056 80.7374 103.446 80.8044 103.839 80.8326C104.208 80.8085 104.572 80.7415 104.927 80.6329L129.042 70.4154C129.4 70.2666 129.724 70.0441 129.998 69.7653C130.272 69.4852 130.488 69.1528 130.635 68.7855L140.576 44.0976C140.748 43.7383 140.837 43.3443 140.837 42.9435C140.837 42.5441 140.748 42.15 140.576 41.7908L130.635 17.1417C130.485 16.7865 130.267 16.4662 129.993 16.1995C129.719 15.9341 129.396 15.7263 129.042 15.5909L104.927 5.29448C104.578 5.16768 104.21 5.10039 103.839 5.0957ZM103.839 11.9736L125.275 21.0783L134.052 43.0239L125.275 64.8502L103.839 73.915L82.4423 64.8502L73.5501 43.0239L82.4423 21.0783L103.839 11.9736Z" fill="#FF5E18" />
	<path fill-rule="evenodd" clip-rule="evenodd" d="M134.087 42.9813L125.271 21.0759L103.875 11.9712L82.4395 21.0759L73.5475 42.9813L82.4395 64.8076L103.875 73.9126L125.271 64.8076L134.087 42.9813Z" fill="#202022" />
	<path fill-rule="evenodd" clip-rule="evenodd" d="M101.512 47.5954H115.763V54.3937H91.8811V48.2709L101.318 37.536L91.8811 27.5571V21.3955H115.763V28.1938H101.822L110.522 37.536L101.512 47.5954Z" fill="white" />
	<path d="M103.84 0.0451364C103.455 -0.0149114 103.062 -0.0149114 102.676 0.0451364L78.5991 10.2625C78.2481 10.4091 77.9325 10.6303 77.6705 10.9112C77.4099 11.1922 77.2095 11.5267 77.085 11.8925L67.0272 36.5809C66.7927 37.3181 66.7927 38.1115 67.0272 38.8474L77.085 63.5367C77.2095 63.9026 77.4099 64.2364 77.6705 64.5178C77.9325 64.7993 78.2481 65.0191 78.5991 65.1665L102.676 75.3841C103.062 75.4444 103.455 75.4444 103.84 75.3841C104.2 75.4444 104.568 75.4444 104.927 75.3841L129.043 65.1665C129.401 65.0164 129.725 64.7953 129.999 64.5152C130.273 64.235 130.489 63.9026 130.636 63.5367L140.577 38.8474C140.747 38.4949 140.836 38.1075 140.836 37.7148C140.836 37.3207 140.747 36.9334 140.577 36.5809L130.636 11.8925C130.489 11.5262 130.273 11.1935 129.999 10.9137C129.725 10.6338 129.401 10.4124 129.043 10.2625L104.927 0.0451364C104.568 -0.0150455 104.2 -0.0150455 103.84 0.0451364ZM103.84 6.92302L125.276 16.0266L134.053 37.8542L125.276 59.7998L103.84 68.9035L82.4434 59.7998L73.5512 37.8542L82.4434 16.0266L103.84 6.92302Z" fill="white" />
	<path d="M103.841 135.341C103.442 135.309 103.042 135.377 102.676 135.541L78.5991 145.757C77.9233 146.042 77.3797 146.584 77.085 147.269L67.0272 171.997C66.7927 172.706 66.7927 173.474 67.0272 174.183L74.7942 193.704L80.7734 191.279L73.3953 173.071L82.2888 151.164L103.686 142.06L125.122 151.164L132.889 170.685L138.907 168.26L130.442 147.188C130.105 146.506 129.541 145.969 128.849 145.678L104.733 135.46C104.448 135.354 104.144 135.314 103.841 135.341Z" fill="#FF5E18" />
	<path fill-rule="evenodd" clip-rule="evenodd" d="M133.177 170.058L125.333 150.577L103.937 141.474L82.5016 150.577L73.6084 172.484L81.0255 190.693L133.177 170.058Z" fill="#202022" />
	<path fill-rule="evenodd" clip-rule="evenodd" d="M101.512 177.763H115.336L98.0946 184.681H91.8811V178.439L101.318 167.784L91.8811 157.686V151.563H115.763V158.362H101.822L110.522 167.665L101.512 177.763Z" fill="white" />
	<path d="M103.839 130.172C103.442 130.193 103.049 130.274 102.675 130.41L78.5981 140.707C78.247 140.832 77.9288 141.035 77.6668 141.303C77.4035 141.573 77.2044 141.899 77.0839 142.258L67.0261 166.907C66.8034 167.659 66.8034 168.462 67.0261 169.214L76.7722 193.067L83.4128 190.324L82.4423 190.005L73.5501 168.06L82.4423 146.154L103.839 137.051L125.275 146.154L134.052 168.06L133.003 170.803L140.77 167.623C140.729 167.36 140.651 167.105 140.537 166.868L130.595 142.218C130.453 141.86 130.236 141.535 129.961 141.269C129.688 141.001 129.36 140.797 129.004 140.668L104.888 130.37C104.55 130.248 104.197 130.181 103.839 130.172Z" fill="white" />
	<path d="M145.285 167.793L65.4048 199.36" stroke="#FF5E18" stroke-width="2.45785" stroke-linecap="round" stroke-linejoin="round" />
	<path d="M6.72777 144.21C10.4439 144.21 13.4556 147.289 13.4556 151.087C13.4556 154.885 10.4439 157.964 6.72777 157.964C3.01217 157.964 0 154.885 0 151.087C0 147.289 3.01217 144.21 6.72777 144.21Z" fill="white" />
	<path fill-rule="evenodd" clip-rule="evenodd" d="M17.7455 99.9951H26.6456C28.2748 99.9951 29.6626 97.7439 29.6626 94.9684V79.549C29.6626 76.7735 28.3653 74.5222 26.6456 74.5222H17.7455C16.1465 74.5222 14.7285 76.7735 14.7285 79.549V94.9684C14.8492 97.7439 16.0258 99.9951 17.7455 99.9951Z" fill="#FF5E18" />
	<path fill-rule="evenodd" clip-rule="evenodd" d="M178.23 134.286H188.687C189.661 134.2 190.561 133.72 191.193 132.952C191.825 132.184 192.139 131.189 192.064 130.185V117.849C192.139 116.844 191.825 115.85 191.193 115.081C190.561 114.313 189.661 113.834 188.687 113.747H178.23C177.261 113.842 176.365 114.323 175.734 115.089C175.104 115.856 174.787 116.846 174.854 117.849V130.185C174.787 131.188 175.104 132.178 175.734 132.944C176.365 133.71 177.261 134.192 178.23 134.286Z" fill="#FF5E18" stroke="#FF5E18" stroke-width="0.801008" stroke-miterlimit="10" />
	<defs>
		<linearGradient id="paint0_linear_623_8999" x1="36.4243" y1="169.053" x2="38.4595" y2="-57.5591" gradientUnits="userSpaceOnUse">
			<stop stop-color="#FF5E18" stop-opacity="0" />
			<stop offset="1" stop-color="#FF5E18" />
		</linearGradient>
	</defs>
</svg>
