<svg xmlns="http://www.w3.org/2000/svg" width="230" height="169" viewBox="0 0 230 169" fill="none">
	<path fill-rule="evenodd" clip-rule="evenodd" d="M76.1879 153.995C85.3436 120.928 102.358 90.4284 125.851 64.9687L123.931 57.025L148.199 33.3232L159.159 37.0689C162.142 35.1412 165.226 33.363 168.395 31.7409C154.523 23.6357 149.027 19.3409 133.433 32.4513C102.277 58.7041 71.5196 104.235 66.1229 150.186C65.1296 159.712 73.9696 161.843 76.1879 153.995Z" fill="white" />
	<path fill-rule="evenodd" clip-rule="evenodd" d="M98.3734 83.9235L99.1016 77.0777L105.227 73.687L225.676 147.699L222.828 156.062L216.075 161.939L98.3734 83.9235Z" fill="white" />
	<path fill-rule="evenodd" clip-rule="evenodd" d="M162.931 124.155L169.552 114.468C170.382 113.269 171.656 112.431 173.109 112.128C174.559 111.827 176.074 112.088 177.333 112.854L223.42 143.047C236.299 151.249 223.618 170.139 210.739 161.937L164.387 131.841C163.766 131.437 163.236 130.914 162.825 130.306C162.415 129.697 162.133 129.014 161.997 128.298C161.862 127.582 161.874 126.846 162.034 126.135C162.195 125.424 162.5 124.751 162.931 124.155Z" fill="#FF5E18" stroke="#FF5E18" stroke-width="0.801008" stroke-miterlimit="10" />
	<path d="M123.73 41.3647C96.1848 68.328 71.0554 109.177 66.2216 150.187C65.1291 159.874 73.9689 161.844 76.154 153.997" stroke="#FF5E18" stroke-width="2.40302" stroke-linecap="round" stroke-linejoin="round" />
	<path d="M155.187 112.499L125.952 94.3521" stroke="#202022" stroke-width="2.40302" stroke-miterlimit="10" stroke-linecap="round" />
	<path fill-rule="evenodd" clip-rule="evenodd" d="M112.044 136.817H119.99C121.413 136.817 122.573 139.563 122.573 142.953V161.585C122.573 164.976 121.413 167.72 119.99 167.72H112.044C110.654 167.72 109.494 164.976 109.494 161.585V142.953C109.561 139.563 110.654 136.817 112.044 136.817Z" fill="#FF5E18" stroke="#FF5E18" stroke-width="0.801008" stroke-miterlimit="10" />
	<path fill-rule="evenodd" clip-rule="evenodd" d="M112.044 136.817H119.99C121.413 136.817 122.573 139.563 122.573 142.953V161.585C122.573 164.976 121.413 167.72 119.99 167.72H112.044C110.654 167.72 109.494 164.976 109.494 161.585V142.953C109.561 139.563 110.654 136.817 112.044 136.817Z" fill="#FF5E18" stroke="#FF5E18" stroke-width="0.801008" stroke-miterlimit="10" />
	<path fill-rule="evenodd" clip-rule="evenodd" d="M185.712 1H197.299C198.378 1.09055 199.376 1.59248 200.076 2.39673C200.776 3.20098 201.124 4.2425 201.041 5.29475V18.2113C201.124 19.2635 200.776 20.305 200.076 21.1093C199.376 21.9135 198.378 22.4156 197.299 22.5061H185.712C184.638 22.4075 183.645 21.9032 182.946 21.1009C182.247 20.2986 181.897 19.2617 181.97 18.2113V5.29475C181.897 4.24441 182.247 3.20749 182.946 2.40516C183.645 1.60283 184.638 1.09861 185.712 1Z" fill="#FF5E18" stroke="#FF5E18" stroke-width="0.801008" stroke-miterlimit="10" />
	<path fill-rule="evenodd" clip-rule="evenodd" d="M3.33141 112.778H13.6285C14.6192 112.907 15.5184 113.408 16.1371 114.174C16.7548 114.939 17.043 115.91 16.9391 116.879V129.441C17.043 130.41 16.7548 131.381 16.1371 132.146C15.5184 132.912 14.6192 133.413 13.6285 133.542H3.33141C2.3418 133.413 1.44153 132.912 0.823862 132.146C0.205076 131.381 -0.0830882 130.41 0.0207874 129.441V116.879C-0.0830882 115.91 0.205076 114.939 0.823862 114.174C1.44153 113.408 2.3418 112.907 3.33141 112.778Z" fill="white" />
</svg>
