<svg width="40" height="40" viewBox="0 0 40 40" fill="none" xmlns="http://www.w3.org/2000/svg">
	<path fill-rule="evenodd" clip-rule="evenodd" d="M18.7298 25.1398H26.4717V28.7378H13.5278V25.4686L18.6215 19.8295L13.5522 14.5466V11.2676H26.4717V14.8647H18.8942L23.5932 19.7851L18.7298 25.1398Z" fill="white" />
	<path d="M20.0001 3.64L31.5704 8.43171L36.3626 20.0024L31.5704 31.5732L19.9996 36.3659L8.42938 31.5727L3.63669 20.002L8.42938 8.43171L20.0001 3.64ZM20.0001 0C19.7943 0 19.5904 0.0404878 19.4001 0.119024L6.36694 5.51903C6.17689 5.59764 6.00419 5.71294 5.85872 5.85832C5.71325 6.00371 5.59786 6.17634 5.51913 6.36634L0.119131 19.4005C-0.0397102 19.7842 -0.0397102 20.2153 0.119131 20.599L5.51913 33.6327C5.59772 33.8228 5.71306 33.9955 5.85855 34.1409C6.00404 34.2863 6.17681 34.4015 6.36694 34.48L19.4006 39.88C19.5905 39.9592 19.7941 40 19.9999 40C20.2056 40 20.4093 39.9592 20.5991 39.88L33.6333 34.48C33.8233 34.4014 33.9959 34.2861 34.1413 34.1407C34.2867 33.9953 34.402 33.8227 34.4806 33.6327L39.8806 20.5985C40.0395 20.2148 40.0395 19.7837 39.8806 19.4L34.4806 6.36634C34.3213 5.98279 34.0164 5.67807 33.6328 5.51903L20.5991 0.119024C20.4091 0.0407085 20.2056 0.000276107 20.0001 0Z" fill="white" />
</svg>
