<svg xmlns="http://www.w3.org/2000/svg" width="40" height="40" viewBox="0 0 40 40" fill="none">
	<path d="M0.359375 8.37891L5.69469 12.5674H11.2893C16.3753 12.5674 16.3753 12.5674 19.1677 16.7559L19.7461 17.6235L17.2031 21.438L14.0816 16.7559H8.48703C5.94403 16.7559 5.94403 16.7559 3.15169 12.5674L0.359375 8.37891ZM39.6413 8.37891L34.306 12.5674H28.7114C23.6254 12.5674 23.6254 12.5674 20.8331 16.7559L17.4574 21.8194L20.0004 25.634L25.9191 16.7559H31.5137C34.0567 16.7559 34.0567 16.7559 36.849 12.5674L39.6413 8.37891Z" fill="white" stroke="#FF4221" stroke-width="0.28721" />
	<path d="M8.82617 17.2617H13.9122L22.2891 29.8272H17.2031L13.0147 23.5444C12.7155 23.0957 12.2667 21.3006 12.7155 20.8518C11.2196 20.8518 11.2196 20.8518 8.82617 17.2617ZM31.1747 17.2617H26.0887L20.2547 26.0127L22.7978 29.8272L26.9862 23.5444C27.2854 23.0957 27.7342 21.3006 27.2854 20.8518C28.7813 20.8518 28.7813 20.8518 31.1747 17.2617Z" fill="white" stroke="#FF4221" stroke-width="0.28721" />
</svg>
