<svg xmlns="http://www.w3.org/2000/svg" width="40" height="40" viewBox="0 0 40 40" fill="none">
	<g clip-path="url(#clip0_623_15064)">
		<path d="M19.9998 40C14.6558 40 9.63148 37.9222 5.85803 34.1418C2.07763 30.3614 -0.000205994 25.337 -0.000205994 20C-0.000205994 14.663 2.07763 9.63169 5.85803 5.85823C9.63843 2.07783 14.6628 0 19.9998 0C25.3368 0 30.3681 2.07783 34.1416 5.85823C37.922 9.63864 39.9998 14.663 39.9998 20C39.9998 25.337 37.922 30.3683 34.1416 34.1418C30.3612 37.9152 25.3368 40 19.9998 40ZM19.9998 1.05629C14.9407 1.05629 10.1874 3.02293 6.60855 6.60181C3.02968 10.1807 1.06303 14.934 1.06303 19.9931C1.06303 25.0521 3.02968 29.8054 6.60855 33.3843C10.1874 36.9632 14.9407 38.9298 19.9998 38.9298C25.0589 38.9298 29.8122 36.9632 33.391 33.3843C36.9699 29.8054 38.9366 25.0521 38.9366 19.9931C38.9366 14.934 36.963 10.1807 33.3841 6.60181C29.8122 3.02293 25.0519 1.05629 19.9998 1.05629Z" fill="#FFAE00" />
		<path d="M19.9997 37.405C15.5111 37.405 12.0159 34.8134 10.3355 33.2749C7.98291 31.1165 6.33984 28.4204 6.33984 26.7176C6.33984 25.7467 6.89251 25.3359 8.19202 25.3359C9.17039 25.3359 10.4998 25.5675 12.0383 25.8438C14.2639 26.2322 17.0347 26.7251 20.0072 26.7251C22.9796 26.7251 25.7504 26.2396 27.976 25.8438C29.5145 25.5749 30.8439 25.3359 31.8223 25.3359C33.1218 25.3359 33.6745 25.7467 33.6745 26.7176C33.6745 28.4204 32.0314 31.1165 29.6788 33.2749C27.9835 34.8209 24.4882 37.405 19.9997 37.405Z" fill="white" />
		<path d="M31.8148 25.4613C32.4272 25.4613 32.8529 25.5509 33.1293 25.7451C33.4056 25.9393 33.54 26.2455 33.54 26.716C33.54 28.0827 32.3003 30.6892 29.5817 33.1837C27.9163 34.7147 24.4509 37.2839 19.9997 37.2839C15.5485 37.2839 12.0831 34.7147 10.4176 33.1837C7.69912 30.6892 6.45935 28.0827 6.45935 26.716C6.45935 26.2455 6.58631 25.9393 6.87012 25.7451C7.14645 25.5509 7.57215 25.4613 8.18457 25.4613C9.148 25.4613 10.4774 25.6928 12.0084 25.9617C14.2415 26.3575 17.0198 26.843 19.9997 26.843C22.9796 26.843 25.7579 26.3575 27.991 25.9617C29.522 25.6928 30.8439 25.4613 31.8148 25.4613ZM31.8148 25.2148C29.4025 25.2148 25.011 26.5965 19.9997 26.5965C14.9884 26.5965 10.5969 25.2148 8.18457 25.2148C6.92987 25.2148 6.21289 25.5883 6.21289 26.7235C6.21289 30.0395 12.3893 37.5378 19.9997 37.5378C27.6101 37.5378 33.7865 30.032 33.7865 26.716C33.7865 25.5883 33.0621 25.2148 31.8148 25.2148Z" fill="white" />
		<path d="M30.8586 25.3281C30.8586 27.9421 25.9966 33.8496 19.992 33.8496C13.9873 33.8496 9.13281 27.9346 9.13281 25.3281C9.13281 22.7217 13.9948 25.231 19.9995 25.231C26.0041 25.231 30.8586 22.7141 30.8586 25.3281Z" fill="#FFAE00" />
		<path d="M19.9995 34.3264C14.906 34.3264 10.873 30.3756 9.40921 27.7168C9.28225 27.4853 9.3644 27.1866 9.59593 27.0596C9.82745 26.9326 10.1262 27.0148 10.2532 27.2463C11.0672 28.7251 12.4414 30.2038 14.0247 31.3166C15.3467 32.2427 17.4602 33.3555 19.992 33.3555C20.2609 33.3555 20.4775 33.5721 20.4775 33.841C20.4775 34.1098 20.2609 34.3264 19.9995 34.3264Z" fill="white" />
		<path d="M19.9992 28.0243C17.7512 28.0243 16.2052 27.8973 14.9878 27.621C13.5987 27.2998 12.5979 26.7696 11.8361 25.9555C10.3051 24.305 9.67773 21.3773 9.67773 15.8656C9.67773 10.0028 14.3082 5.23047 19.9992 5.23047C25.6901 5.23047 30.3206 10.0028 30.3206 15.8656C30.3206 21.3773 29.6932 24.305 28.1622 25.9555C26.564 27.6807 23.8529 28.0243 19.9992 28.0243Z" fill="white" />
		<path d="M19.9999 5.34124C22.7259 5.34124 25.2875 6.43164 27.2144 8.41825C29.1413 10.4049 30.2093 13.0487 30.2093 15.8569C30.2093 21.3387 29.5969 24.244 28.0808 25.8721C27.3414 26.6712 26.3555 27.194 24.9888 27.5077C23.7789 27.784 22.2404 27.911 19.9999 27.911C17.7593 27.911 16.2208 27.784 15.0109 27.5077C13.6442 27.194 12.6584 26.6712 11.919 25.8721C10.4103 24.244 9.79046 21.3387 9.79046 15.8569C9.79046 13.0487 10.851 10.4049 12.7853 8.41825C14.7047 6.43911 17.2739 5.34124 19.9999 5.34124ZM19.9999 5.11719C14.2342 5.11719 9.56641 9.92689 9.56641 15.8643C9.56641 26.6115 11.919 28.135 19.9999 28.135C28.0808 28.135 30.4333 26.6115 30.4333 15.8643C30.4333 9.92689 25.7581 5.11719 19.9999 5.11719Z" fill="white" />
		<path d="M19.9999 26.6115C25.7621 26.6115 30.4333 21.7998 30.4333 15.8643C30.4333 9.92884 25.7621 5.11719 19.9999 5.11719C14.2376 5.11719 9.56641 9.92884 9.56641 15.8643C9.56641 21.7998 14.2376 26.6115 19.9999 26.6115Z" fill="#FFAE00" stroke="white" stroke-width="0.224054" stroke-miterlimit="10" stroke-linecap="round" stroke-linejoin="round" />
		<path d="M13.6816 7.30475C14.1596 6.95378 15.0409 6.61026 16.3404 7.29736L15.2799 6.28906L13.6816 7.30475Z" fill="white" stroke="white" stroke-width="0.224054" stroke-miterlimit="10" stroke-linecap="round" stroke-linejoin="round" />
		<path d="M26.2965 7.30475C25.8184 6.95378 24.9147 6.61772 23.6152 7.31228L24.631 6.28906L26.2965 7.30475Z" fill="white" stroke="white" stroke-width="0.224054" stroke-miterlimit="10" stroke-linecap="round" stroke-linejoin="round" />
		<path d="M25.0102 4.78879C25.0102 3.56397 22.7623 2.57812 19.9915 2.57812C17.2206 2.57812 14.9727 3.57143 14.9727 4.78879V5.7821C14.9727 7.00692 17.2206 7.99277 19.9915 7.99277C22.7623 7.99277 25.0102 6.99946 25.0102 5.7821V4.78879Z" fill="#FFAE00" stroke="white" stroke-width="0.224054" stroke-miterlimit="10" stroke-linecap="round" stroke-linejoin="round" />
		<path d="M12.9877 26.5495C12.5545 26.5495 12.2109 26.1985 12.2109 25.7728C12.2109 25.3471 12.562 24.9961 12.9877 24.9961C13.4134 24.9961 13.7644 25.3471 13.7644 25.7728C13.7644 26.1985 13.4134 26.5495 12.9877 26.5495ZM12.9877 25.362C12.7636 25.362 12.5844 25.5413 12.5844 25.7653C12.5844 25.9894 12.7636 26.1686 12.9877 26.1686C13.2117 26.1686 13.391 25.9894 13.391 25.7653C13.391 25.5413 13.2117 25.362 12.9877 25.362Z" fill="#FFEABD" />
		<path d="M26.9681 26.6863C26.535 26.6863 26.1914 26.3352 26.1914 25.9095C26.1914 25.4838 26.5424 25.1328 26.9681 25.1328C27.3938 25.1328 27.7448 25.4838 27.7448 25.9095C27.7448 26.3352 27.4013 26.6863 26.9681 26.6863ZM26.9681 25.4988C26.7441 25.4988 26.5648 25.678 26.5648 25.9021C26.5648 26.1261 26.7441 26.3054 26.9681 26.3054C27.1922 26.3054 27.3714 26.1261 27.3714 25.9021C27.3714 25.678 27.1922 25.4988 26.9681 25.4988Z" fill="#FFEABD" />
		<path d="M19.9993 5.83924C21.975 5.83924 23.5767 5.1337 23.5767 4.26337C23.5767 3.39304 21.975 2.6875 19.9993 2.6875C18.0235 2.6875 16.4219 3.39304 16.4219 4.26337C16.4219 5.1337 18.0235 5.83924 19.9993 5.83924Z" fill="url(#paint0_linear_623_15064)" stroke="white" stroke-width="0.224054" stroke-miterlimit="10" />
		<path d="M19.9988 5.96813C17.2952 5.96813 15.1816 5.22128 15.1816 4.26531C15.1816 3.30935 17.2952 2.5625 19.9988 2.5625C22.7024 2.5625 24.816 3.30935 24.816 4.26531C24.816 5.22128 22.6949 5.96813 19.9988 5.96813ZM19.9988 2.81643C17.2728 2.81643 15.443 3.56328 15.443 4.26531C15.443 4.96735 17.2728 5.7142 19.9988 5.7142C22.7248 5.7142 24.5546 4.96735 24.5546 4.26531C24.5546 3.56328 22.7248 2.81643 19.9988 2.81643Z" fill="white" />
		<path d="M23.2263 5.00584C21.1202 4.28886 18.7079 4.28886 16.7661 5.00584L16.6914 4.79672C18.678 4.05734 21.1501 4.05734 23.301 4.79672L23.2263 5.00584Z" fill="white" />
		<path d="M23.3232 3.83227C21.2245 3.11529 18.618 3.11529 16.6762 3.83227L16.6015 3.62315C18.5807 2.89124 21.2544 2.89124 23.3979 3.62315L23.3232 3.83227Z" fill="white" />
		<path d="M18.6109 5.82679C18.2599 4.88576 18.2599 3.67587 18.6109 2.66016L18.82 2.73484C18.4914 3.70574 18.4914 4.86336 18.82 5.7521L18.6109 5.82679Z" fill="white" />
		<path d="M21.381 5.81898L21.1719 5.74429C21.5005 4.77339 21.5005 3.61578 21.1719 2.72703L21.381 2.65234C21.7245 3.59337 21.7245 4.80326 21.381 5.81898Z" fill="white" />
		<path d="M12.359 8.54342C12.3813 8.50611 10.8652 10.8139 10.8652 10.8139L12.2096 12.1507C12.2021 12.1507 11.2087 10.433 12.359 8.54349V8.54342Z" fill="white" stroke="white" stroke-width="0.224054" stroke-miterlimit="10" stroke-linecap="round" stroke-linejoin="round" />
		<path d="M27.6096 8.54342C27.5872 8.50611 29.1033 10.8139 29.1033 10.8139L27.759 12.1507C27.7665 12.1507 28.7598 10.433 27.6097 8.54349L27.6096 8.54342Z" fill="white" stroke="white" stroke-width="0.224054" stroke-miterlimit="10" stroke-linecap="round" stroke-linejoin="round" />
		<path d="M11.4623 20.4439C11.0366 20.9591 10.6782 21.8479 10.9844 22.3558L10.1778 21.116C10.1778 21.116 10.1628 19.9883 10.2151 19.9883C10.2674 19.9883 11.4623 20.4439 11.4623 20.4439Z" fill="white" stroke="white" stroke-width="0.224054" stroke-miterlimit="10" stroke-linecap="round" stroke-linejoin="round" />
		<path d="M28.5508 20.5335C28.9764 21.0488 29.3126 21.8404 29.0064 22.3558L29.8129 21.116C29.8129 21.116 29.8279 19.9883 29.7756 19.9883C29.7233 19.9883 28.5508 20.5335 28.5508 20.5335Z" fill="white" stroke="white" stroke-width="0.224054" stroke-miterlimit="10" stroke-linecap="round" stroke-linejoin="round" />
		<path d="M10.2302 10.7852C9.00538 10.7852 8.01955 13.0332 8.01955 15.804C8.01955 18.5748 9.01285 20.8228 10.2302 20.8228H10.6783C11.9032 20.8228 12.889 18.5748 12.889 15.804C12.889 13.0332 11.8957 10.7852 10.6783 10.7852H10.2302Z" fill="#FFAE00" stroke="white" stroke-width="0.224054" stroke-miterlimit="10" stroke-linecap="round" stroke-linejoin="round" />
		<path d="M9.46843 19.3735C10.3387 19.3735 11.0443 17.7719 11.0443 15.7961C11.0443 13.8204 10.3387 12.2188 9.46843 12.2188C8.59811 12.2188 7.89258 13.8204 7.89258 15.7961C7.89258 17.7719 8.59811 19.3735 9.46843 19.3735Z" fill="url(#paint1_linear_623_15064)" stroke="white" stroke-width="0.224054" stroke-miterlimit="10" />
		<path d="M9.79734 20.853V20.5991C10.5218 20.5991 11.1118 18.4482 11.1118 15.8043C11.1118 14.5571 10.955 13.3248 10.6861 12.4211C10.4247 11.5473 10.0737 11.0469 9.72266 11.0469V10.793C10.2081 10.793 10.6263 11.3307 10.9326 12.3464C11.2164 13.28 11.3732 14.5048 11.3732 15.8043C11.3657 18.3063 10.828 20.853 9.79734 20.853Z" fill="white" />
		<path d="M9.99789 19.1057C9.25851 17.1191 9.25851 14.647 9.99789 12.4961L10.207 12.5708C9.49004 14.6769 9.49004 17.0892 10.207 19.031L9.99789 19.1057Z" fill="white" />
		<path d="M9.12525 19.3742C8.34106 17.2607 8.34106 14.5197 9.12525 12.2344L9.33437 12.3091C8.56512 14.5496 8.56512 17.2308 9.33437 19.2996L9.12525 19.3742Z" fill="white" />
		<path d="M9.50588 17.4471C8.98309 17.4471 8.44536 17.3575 7.9375 17.1857L8.01218 16.9766C8.98309 17.3052 10.0511 17.3052 10.9473 16.9766L11.022 17.1857C10.5515 17.3575 10.0361 17.4471 9.50588 17.4471Z" fill="white" />
		<path d="M10.9473 14.6247C9.97639 14.2961 8.9084 14.2961 8.01218 14.6247L7.9375 14.4156C8.87853 14.0646 10.0063 14.0646 11.022 14.4156L10.9473 14.6247Z" fill="white" />
		<path d="M29.7311 10.7852C30.956 10.7852 31.9418 13.0332 31.9418 15.804C31.9418 18.5748 30.9485 20.8228 29.7311 20.8228H29.283C28.0582 20.8228 27.0723 18.5748 27.0723 15.804C27.0723 13.0332 28.0657 10.7852 29.283 10.7852H29.7311Z" fill="#FFAE00" stroke="white" stroke-width="0.224054" stroke-miterlimit="10" stroke-linecap="round" stroke-linejoin="round" />
		<path d="M30.4861 19.3735C31.3564 19.3735 32.0619 17.7719 32.0619 15.7961C32.0619 13.8204 31.3564 12.2188 30.4861 12.2188C29.6158 12.2188 28.9102 13.8204 28.9102 15.7961C28.9102 17.7719 29.6158 19.3735 30.4861 19.3735Z" fill="url(#paint2_linear_623_15064)" stroke="white" stroke-width="0.224054" stroke-miterlimit="10" />
		<path d="M30.4861 20.6433C29.5301 20.6433 28.7833 18.5148 28.7833 15.7963C28.7833 13.0777 29.5301 10.9492 30.4861 10.9492V11.2031C29.7841 11.2031 29.0372 13.0479 29.0372 15.7888C29.0372 18.5297 29.7841 20.3744 30.4861 20.3744V20.6433Z" fill="white" />
		<path d="M29.9553 19.1057L29.7462 19.031C30.4631 17.0892 30.4631 14.6769 29.7462 12.5708L29.9553 12.4961C30.6947 14.647 30.6947 17.1191 29.9553 19.1057Z" fill="white" />
		<path d="M30.8283 19.3742L30.6192 19.2996C31.3885 17.2308 31.3885 14.5496 30.6192 12.3091L30.8283 12.2344C31.6125 14.5197 31.6125 17.2607 30.8283 19.3742Z" fill="white" />
		<path d="M30.4478 17.4471C29.9176 17.4471 29.4022 17.3575 28.9317 17.1857L29.0064 16.9766C29.9026 17.3052 30.9706 17.3052 31.9415 16.9766L32.0162 17.1857C31.5083 17.3575 30.9706 17.4471 30.4478 17.4471Z" fill="white" />
		<path d="M29.0064 14.6247L28.9317 14.4156C29.9549 14.0646 31.0752 14.0646 32.0162 14.4156L31.9415 14.6247C31.0453 14.2961 29.9773 14.2961 29.0064 14.6247Z" fill="white" />
		<path d="M16.3848 3.25128C16.6387 3.17667 16.803 3.37081 16.7657 3.55003C17.2585 3.04222 18.0577 2.85547 18.0577 2.85547L16.3848 3.25128Z" fill="white" stroke="white" stroke-width="0.224054" stroke-miterlimit="10" stroke-linecap="round" stroke-linejoin="round" />
		<path d="M23.6143 3.25128C23.3603 3.17667 23.1363 3.41558 23.2633 3.62472C22.7032 3.19159 22.0684 2.85547 22.0684 2.85547L23.6143 3.25128Z" fill="white" stroke="white" stroke-width="0.224054" stroke-miterlimit="10" stroke-linecap="round" stroke-linejoin="round" />
		<path d="M19.9619 22.1972C23.439 22.1972 26.2578 19.3785 26.2578 15.9014C26.2578 12.4242 23.439 9.60547 19.9619 9.60547C16.4848 9.60547 13.666 12.4242 13.666 15.9014C13.666 19.3785 16.4848 22.1972 19.9619 22.1972Z" fill="white" stroke="white" stroke-width="0.562846" stroke-miterlimit="10" />
		<path d="M19.9627 21.2495C22.9159 21.2495 25.3101 18.8554 25.3101 15.9021C25.3101 12.9488 22.9159 10.5547 19.9627 10.5547C17.0094 10.5547 14.6152 12.9488 14.6152 15.9021C14.6152 18.8554 17.0094 21.2495 19.9627 21.2495Z" fill="url(#paint3_linear_623_15064)" stroke="white" stroke-width="0.224054" stroke-miterlimit="10" />
		<path d="M21.9048 20.7345C21.5313 20.7345 21.1579 20.5926 20.8741 20.3088L15.5566 14.9913C14.989 14.4237 14.989 13.4976 15.5566 12.9225L16.983 11.496C17.5506 10.9284 18.4767 10.9284 19.0518 11.496L24.3694 16.8136C24.937 17.3812 24.937 18.3073 24.3694 18.8823L22.9429 20.3088C22.6591 20.5926 22.2857 20.7345 21.9048 20.7345ZM18.0137 11.5408C17.7448 11.5408 17.4984 11.6454 17.3117 11.8321L15.8852 13.2586C15.6985 13.4453 15.5939 13.6917 15.5939 13.9606C15.5939 14.2295 15.6985 14.4759 15.8852 14.6626L21.2027 19.9802C21.5911 20.3686 22.2184 20.3686 22.6068 19.9802L24.0333 18.5537C24.4216 18.1654 24.4216 17.538 24.0333 17.1496L18.7157 11.8321C18.529 11.6379 18.2826 11.5408 18.0137 11.5408Z" fill="white" />
		<path d="M18.0137 20.7345C17.6403 20.7345 17.2668 20.5926 16.983 20.3088L15.5566 18.8823C14.989 18.3147 14.989 17.3886 15.5566 16.8136L20.8741 11.496C21.4417 10.9284 22.3678 10.9284 22.9429 11.496L24.3694 12.9225C24.937 13.4901 24.937 14.4162 24.3694 14.9913L19.0518 20.3088C18.7605 20.5926 18.3871 20.7345 18.0137 20.7345ZM17.3117 19.9727C17.4984 20.1594 17.7448 20.264 18.0137 20.264C18.2826 20.264 18.529 20.1594 18.7157 19.9727L24.0333 14.6552C24.4216 14.2668 24.4216 13.6395 24.0333 13.2511L22.6068 11.8246C22.2184 11.4363 21.5911 11.4363 21.2027 11.8246L15.8852 17.1422C15.4968 17.5305 15.4968 18.1579 15.8852 18.5463L17.3117 19.9727Z" fill="white" />
	</g>
	<defs>
		<linearGradient id="paint0_linear_623_15064" x1="23.5057" y1="4.23454" x2="16.3572" y2="4.24714" gradientUnits="userSpaceOnUse">
			<stop stop-color="#FFEABD" />
			<stop offset="1" stop-color="#FFC027" />
		</linearGradient>
		<linearGradient id="paint1_linear_623_15064" x1="9.46985" y1="12.2249" x2="9.46985" y2="19.3733" gradientUnits="userSpaceOnUse">
			<stop stop-color="#FFEABD" />
			<stop offset="1" stop-color="#FFC027" />
		</linearGradient>
		<linearGradient id="paint2_linear_623_15064" x1="30.4865" y1="12.2249" x2="30.4865" y2="19.3733" gradientUnits="userSpaceOnUse">
			<stop stop-color="#FFEABD" />
			<stop offset="1" stop-color="#FFC027" />
		</linearGradient>
		<linearGradient id="paint3_linear_623_15064" x1="14.6112" y1="15.9016" x2="25.3098" y2="15.9016" gradientUnits="userSpaceOnUse">
			<stop stop-color="#FFEABD" />
			<stop offset="1" stop-color="#FFC027" />
		</linearGradient>
		<clipPath id="clip0_623_15064">
			<rect width="40" height="40" fill="white" />
		</clipPath>
	</defs>
</svg>
