<svg xmlns="http://www.w3.org/2000/svg" width="40" height="40" viewBox="0 0 40 40" fill="none">
	<g clip-path="url(#clip0_623_15186)">
		<path d="M37.4798 20.0005V14.422C37.4798 11.2409 35.2309 8.63359 32.4596 8.57762V5.75106C32.4596 2.58868 30.1577 0 27.3415 0H5.11811C2.30193 0 0 2.58401 0 5.7464V34.1519C0 37.3656 2.30193 40.0009 5.11811 40.0009H32.3657C35.1778 40.0009 37.4838 37.3703 37.4838 34.1519V28.5594C38.8715 28.5361 40.0021 27.2301 40.0021 25.6349V22.9156C39.998 21.3298 38.8674 20.0238 37.4798 20.0005ZM37.4389 25.6349L37.4349 25.6396H30.0434L30.0393 25.6349V22.9296L30.0434 22.925H37.4349L37.4389 22.9296V25.6349ZM3.29779 3.77341C3.78757 3.22302 4.43243 2.92451 5.11811 2.92451H27.3374C28.0231 2.92451 28.672 3.22769 29.1577 3.77341C29.6353 4.3098 29.8965 5.00944 29.8965 5.75106V8.57296H5.11811C4.43243 8.57296 3.78348 8.26978 3.29779 7.72406C2.82027 7.18766 2.55906 6.48802 2.55906 5.7464C2.55906 5.00944 2.82027 4.30514 3.29779 3.77341ZM34.1697 36.2182C33.684 36.7732 33.0432 37.0811 32.3657 37.0811H5.11811C4.44059 37.0811 3.79981 36.7732 3.31412 36.2182C2.82843 35.6631 2.55906 34.9308 2.55906 34.1566V10.7232C3.31412 11.2176 4.18755 11.4975 5.11811 11.4975H32.3657C33.0432 11.4975 33.684 11.8053 34.1697 12.3604C34.6554 12.9154 34.9248 13.6477 34.9248 14.422V20.0005H30.0393C28.6312 20.0005 27.4803 21.3158 27.4803 22.925V25.6442C27.4803 27.2534 28.6312 28.5688 30.0393 28.5688H34.9248V34.1612C34.9207 34.9308 34.6554 35.6631 34.1697 36.2182Z" fill="#333333" />
		<path fill-rule="evenodd" clip-rule="evenodd" d="M7.77638 31.6933L15.0535 34.6388L22.2909 31.5341L25.1938 24.2499L22.092 17.0055L14.8149 14.0998L7.57755 17.2045L4.67465 24.4887L7.77638 31.6933ZM15.0535 35.9922C14.974 35.9922 14.8944 35.9922 14.8149 35.9524L7.02083 32.8078C6.86177 32.7282 6.74247 32.6088 6.66294 32.4496L3.36238 24.7276C3.28285 24.5683 3.28285 24.4091 3.36238 24.2101L6.50387 16.4483C6.58341 16.289 6.7027 16.1696 6.86177 16.09L14.5763 12.7863C14.7354 12.7067 14.8944 12.7067 15.0933 12.7863L22.8874 15.9308C23.0066 15.9706 23.1259 16.09 23.2055 16.2492L26.506 23.9713C26.5856 24.1305 26.5856 24.2897 26.506 24.4887L23.3645 32.2904C23.285 32.4496 23.1657 32.569 23.0066 32.6486L15.2921 35.9524C15.2523 35.9922 15.133 35.9922 15.0535 35.9922Z" fill="#333333" />
		<path fill-rule="evenodd" clip-rule="evenodd" d="M14.5763 24.2516L11.4746 21.0274V19.5547H18.4336V21.0274H13.5822L16.6044 24.2516L13.5027 27.6748H18.4336V29.1873H11.4746V27.6748L14.5763 24.2516Z" fill="#333333" />
		<path d="M4.53232 36.9679C3.8866 36.7879 3.24946 36.2294 2.9266 35.5608C2.54946 34.7737 2.5766 35.7722 2.5766 22.5894C2.5766 16.0965 2.59232 10.7908 2.61232 10.8008C2.63374 10.8094 2.78803 10.8894 2.95517 10.9765C3.3166 11.1651 3.65803 11.2951 4.09803 11.4151C4.3966 11.4951 5.26803 11.5022 18.6409 11.5265L32.8666 11.5522L33.1466 11.6665C33.7609 11.9137 34.2866 12.4308 34.5937 13.0894C34.8909 13.7265 34.9023 13.8665 34.9023 17.0751V19.9665H32.378C30.7252 19.9665 29.7637 19.9851 29.5952 20.0208C28.5852 20.2308 27.718 21.1822 27.5195 22.2965C27.4209 22.8494 27.4209 25.7165 27.5195 26.2694C27.718 27.3837 28.5852 28.3351 29.5952 28.5465C29.7652 28.5822 30.7252 28.6008 32.378 28.6008H34.9023V31.4908C34.9023 34.7722 34.8937 34.8722 34.5552 35.5594C34.2795 36.1165 33.8437 36.5594 33.3109 36.8222L32.9209 37.0137L18.8395 37.0222C7.55946 37.0279 4.71374 37.0179 4.53232 36.9679ZM19.1466 34.3337C21.2952 33.4137 23.0937 32.6337 23.1423 32.6051C23.2151 32.5495 23.2766 32.4807 23.3237 32.4022C23.5066 32.1022 26.5752 24.4051 26.578 24.2337C26.5823 24.0337 23.2337 16.1551 23.088 16.0237C22.9695 15.9165 15.108 12.7479 14.888 12.7194C14.7452 12.6994 14.0737 12.9708 10.7437 14.3951C7.97232 15.5808 6.72946 16.1351 6.63946 16.2279C6.46232 16.4065 3.29089 24.2279 3.29232 24.4794C3.29374 24.5937 3.85374 25.9579 4.95232 28.5265C5.86374 30.6579 6.64946 32.4694 6.69946 32.5494C6.75228 32.6343 6.82119 32.708 6.90232 32.7665C6.96517 32.8051 8.78089 33.5494 10.9395 34.4208C13.668 35.5208 14.9209 36.0065 15.0523 36.0065C15.1923 36.0065 16.238 35.5779 19.1466 34.3337Z" fill="#FFAAAA" />
		<path d="M30.0449 24.2827V22.957H37.4021V25.607H30.0449V24.2827Z" fill="#FFAAAA" />
		<path d="M4.53218 8.46629C3.73504 8.24629 2.98504 7.48915 2.72218 6.63772C2.23361 5.05629 3.16933 3.31201 4.67361 2.99772C5.02504 2.92629 27.3593 2.92058 27.745 2.99344C28.3665 3.11201 28.9693 3.52486 29.3493 4.09344C29.8093 4.78201 29.8165 4.82486 29.8365 6.80772L29.8536 8.53629L17.305 8.53201C7.34647 8.52915 4.70933 8.51486 4.53218 8.46629Z" fill="#FFAAAA" />
		<path d="M11.4327 33.1437C9.44703 32.3394 7.80275 31.6508 7.78132 31.6151C7.75989 31.578 7.05989 29.9608 6.22417 28.0208L4.70703 24.4923L6.15275 20.8608L7.59846 17.2294L11.1742 15.6966C13.1413 14.8537 14.7956 14.1651 14.8499 14.168C14.9042 14.1708 16.5513 14.818 18.5113 15.6065L22.0756 17.0408L23.6199 20.6465L25.1656 24.2523L23.7199 27.8794L22.2742 31.508L18.6856 33.048L15.0713 34.598C15.057 34.6037 13.4199 33.948 11.4327 33.1437ZM18.4642 28.4251V27.6394L16.0327 27.6251L13.6042 27.6137L14.5385 26.5808L16.0613 24.898L16.6485 24.248L15.1442 22.648L13.6399 21.048H18.4642V19.5237H11.4327V21.0265L12.9842 22.638L14.537 24.2494L14.1942 24.628L12.6442 26.3351L11.437 27.6637L11.4342 28.4366L11.4327 29.2123H18.4642V28.4251Z" fill="white" />
		<path d="M11.4336 33.1455C8.45936 31.9426 7.80936 31.6626 7.76079 31.5669C7.72936 31.5026 7.02794 29.8841 6.20365 27.9712L4.70508 24.4912L6.15222 20.8598L7.59936 17.2269L11.1751 15.6955C13.1422 14.8526 14.7836 14.1641 14.8222 14.1641C14.9022 14.1641 21.9508 16.9598 22.0365 17.0255C22.0651 17.0483 22.7836 18.6855 23.6279 20.6612L25.1651 24.2569L24.1794 26.7298C23.6351 28.0898 22.9851 29.7241 22.7337 30.3583L22.2779 31.5155L18.6865 33.0512L15.0722 34.5984C15.0579 34.6041 13.4208 33.9512 11.4336 33.1455ZM18.4651 28.4255V27.6398L16.0322 27.6255L13.6008 27.6141L14.2251 26.9212L15.7479 25.2398L16.6479 24.2512L15.1551 22.6626L13.6622 21.0726L16.0637 21.0612L18.4636 21.0469V19.5241H11.4351V21.0241L12.9879 22.6355L14.5422 24.2483L14.2222 24.6026C14.0479 24.7984 13.3508 25.5669 12.6722 26.3112L11.4394 27.6626L11.4365 28.4369L11.4351 29.2126H18.4651V28.4255Z" fill="white" />
	</g>
	<defs>
		<clipPath id="clip0_623_15186">
			<rect width="40" height="40" fill="white" />
		</clipPath>
	</defs>
</svg>
