<svg xmlns="http://www.w3.org/2000/svg" width="40" height="40" viewBox="0 0 40 40" fill="none">
	<path fill-rule="evenodd" clip-rule="evenodd" d="M9.45417 13.4768C11.9737 9.55216 16.0759 7.01842 21.5986 7.85489C22.7018 8.02196 23.7316 7.26307 23.8986 6.15994C24.0657 5.0568 23.3068 4.02711 22.2037 3.85994C14.4935 2.69226 8.82245 6.5959 5.66932 11.9188L2.817 10.7448C1.78528 10.3202 0.604567 10.8124 0.17992 11.8441C-0.244726 12.8759 0.247395 14.0566 1.27922 14.4812L30.5465 26.5272C28.027 30.4516 23.9248 32.9853 18.4021 32.149C17.2989 31.9819 16.2691 32.7407 16.1021 33.8438C15.935 34.9469 16.6939 35.9768 17.797 36.1438C25.5072 37.3116 31.1782 33.4079 34.3315 28.0849L37.1837 29.2589C38.2154 29.6836 39.3961 29.1915 39.8208 28.1597C40.2454 27.128 39.7533 25.9473 38.7216 25.5226L9.45417 13.4768ZM28.8434 9.1163C29.5432 9.1163 30.1106 8.54913 30.1106 7.84963C30.1106 7.15004 29.5432 6.58297 28.8434 6.58297C28.1435 6.58297 27.5761 7.15004 27.5761 7.84963C27.5761 8.54913 28.1435 9.1163 28.8434 9.1163ZM33.8479 11.6881C33.8479 12.3876 33.2806 12.9546 32.5808 12.9546C31.8809 12.9546 31.3135 12.3876 31.3135 11.6881C31.3135 10.9885 31.8809 10.4214 32.5808 10.4214C33.2806 10.4214 33.8479 10.9885 33.8479 11.6881ZM34.555 17.6433C35.2549 17.6433 35.8222 17.0763 35.8222 16.3767C35.8222 15.6771 35.2549 15.1101 34.555 15.1101C33.8551 15.1101 33.2877 15.6771 33.2877 16.3767C33.2877 17.0763 33.8551 17.6433 34.555 17.6433Z" fill="url(#paint0_linear_623_15160)" />
	<defs>
		<linearGradient id="paint0_linear_623_15160" x1="13.0361" y1="12.5084" x2="31.4873" y2="13.1626" gradientUnits="userSpaceOnUse">
			<stop stop-color="#7B7DFF" />
			<stop offset="1" stop-color="#3F41F7" />
		</linearGradient>
	</defs>
</svg>
