<svg width="14" height="11" viewBox="0 0 14 11" fill="none" xmlns="http://www.w3.org/2000/svg">
	<g clip-path="url(#clip0_209_672)">
		<path d="M0.400024 0.600098H13.6V10.8001H0.400024V0.600098Z" fill="#EE1C25" />
		<path d="M1.98401 4.37412L2.875 1.62012L3.76599 4.37412L1.39001 2.69112H4.35998L1.98401 4.37412Z" fill="#FFFF00" />
		<path d="M5.84858 1.67299L4.93164 1.88235L5.54328 1.14802L5.48329 2.13633L4.97444 1.26138L5.84858 1.67299Z" fill="#FFFF00" />
		<path d="M6.77401 2.88118L5.85003 2.70775L6.69021 2.2753L6.26289 3.16228L6.12323 2.15248L6.77401 2.88118Z" fill="#FFFF00" />
		<path d="M6.63911 4.57655L5.86413 4.02992L6.80244 3.98814L6.06117 4.61843L6.33338 3.63774L6.63911 4.57655Z" fill="#FFFF00" />
		<path d="M5.47362 5.684L4.96368 4.8714L5.84485 5.20624L4.92482 5.49265L5.54353 4.69638L5.47362 5.684Z" fill="#FFFF00" />
	</g>
	<defs>
		<clipPath id="clip0_209_672">
			<rect x="0.400024" y="0.600098" width="13.2" height="10.2" rx="2" fill="white" />
		</clipPath>
	</defs>
</svg>
