<svg width="14" height="11" viewBox="0 0 14 11" fill="none" xmlns="http://www.w3.org/2000/svg">
	<g clip-path="url(#clip0_209_629)">
		<path fill-rule="evenodd" clip-rule="evenodd" d="M0.400024 0.600098H19.21V1.38635H0.400024V0.600098ZM0.400024 2.17047H19.21V2.95672H0.400024V2.17047ZM0.400024 3.73872H19.21V4.52497H0.400024V3.73872ZM0.400024 5.30697H19.21V6.09322H0.400024V5.30697ZM0.400024 6.87947H19.21V7.66147H0.400024V6.87947ZM0.400024 8.4456H19.21V9.23185H0.400024V8.4456ZM0.400024 10.0138H19.21V10.8001H0.400024V10.0138Z" fill="#BD3D44" />
		<path fill-rule="evenodd" clip-rule="evenodd" d="M0.400024 1.38623H19.21V2.17036H0.400024V1.38623ZM0.400024 2.95448H19.21V3.73861H0.400024V2.95448ZM0.400024 4.52273H19.21V5.30898H0.400024V4.52273ZM0.400024 6.09311H19.21V6.87936H0.400024V6.09311ZM0.400024 7.66136H19.21V8.44761H0.400024V7.66136ZM0.400024 9.22961H19.21V10.0159H0.400024V9.22961Z" fill="white" />
		<path fill-rule="evenodd" clip-rule="evenodd" d="M0.400024 0.600098H7.92402V6.09322H0.400024V0.600098Z" fill="#192F5D" />
		<path fill-rule="evenodd" clip-rule="evenodd" d="M1.02708 0.833984L1.0972 1.05286H1.31583L1.13845 1.18673L1.20652 1.40561L1.02708 1.26961L0.849705 1.40348L0.915705 1.18673L0.736267 1.05286H0.96108L1.02708 0.833984ZM2.28108 0.833984L2.34914 1.05286H2.57189L2.39245 1.18673L2.45845 1.40561L2.28108 1.26961L2.10164 1.40348L2.1697 1.18673L1.99233 1.05286H2.21095L2.28108 0.833984ZM3.53508 0.833984L3.60314 1.05286H3.82383L3.64645 1.18673L3.71452 1.40561L3.53508 1.26961L3.35564 1.40348L3.4237 1.18673L3.24427 1.05286H3.46702L3.53508 0.833984ZM4.78908 0.833984L4.85714 1.05286H5.07989L4.90045 1.18673L4.96852 1.40561L4.78908 1.26961L4.60964 1.40348L4.67977 1.18673L4.49827 1.05286H4.71895L4.78908 0.833984ZM6.04308 0.833984L6.11114 1.05286H6.33183L6.15446 1.18673L6.22252 1.40561L6.04308 1.26961L5.86364 1.40348L5.9317 1.18673L5.75433 1.05286H5.97502L6.04308 0.833984ZM7.29708 0.833984L7.36514 1.05286H7.58789L7.40639 1.18673L7.47652 1.40561L7.29708 1.26961L7.11764 1.40348L7.18777 1.18673L7.00627 1.05286H7.22902L7.29708 0.833984ZM1.65408 1.38648L1.72214 1.60323H1.94695L1.76752 1.73498L1.83352 1.95386L1.6582 1.81998L1.47877 1.95386L1.5427 1.73498L1.36945 1.60323H1.59014L1.65408 1.38648ZM2.90808 1.38648L2.9782 1.60323H3.19889L3.01739 1.73498L3.08752 1.95386L2.90808 1.81998L2.72864 1.95386L2.7967 1.73498L2.61727 1.60323H2.84002L2.90808 1.38648ZM4.16208 1.38648L4.23014 1.60323H4.45289L4.27345 1.73498L4.34152 1.95386L4.16208 1.81998L3.98264 1.95386L4.0507 1.73498L3.87333 1.60323H4.09195L4.16208 1.38648ZM5.41608 1.38648L5.4862 1.60323H5.70689L5.52539 1.73498L5.59552 1.95386L5.41608 1.81998L5.2387 1.95386L5.3047 1.73498L5.12527 1.60323H5.35008L5.41608 1.38648ZM6.67008 1.38648L6.73814 1.60323H6.96089L6.78146 1.73498L6.84952 1.95386L6.67008 1.81998L6.49064 1.95386L6.55871 1.73498L6.38133 1.60323H6.60202L6.67008 1.38648ZM1.02708 1.93048L1.0972 2.15148H1.31583L1.13845 2.28536L1.20652 2.50211L1.02708 2.36823L0.849705 2.50211L0.915705 2.28536L0.736267 2.15148H0.96108L1.02708 1.93048ZM2.28108 1.93048L2.34914 2.15148H2.57189L2.39245 2.28536L2.45845 2.50211L2.28108 2.36823L2.10164 2.50211L2.1697 2.28323L1.99233 2.14936H2.21095L2.28108 1.93048ZM3.53508 1.93048L3.60314 2.14936H3.82383L3.64645 2.28323L3.71452 2.49998L3.53508 2.36611L3.35564 2.49998L3.4237 2.28111L3.24427 2.14723H3.46702L3.53508 1.93048ZM4.78908 1.93048L4.85714 2.14936H5.07989L4.90045 2.28323L4.96852 2.49998L4.78908 2.36611L4.60964 2.49998L4.67977 2.28111L4.49827 2.14723H4.71895L4.78908 1.93048ZM6.04308 1.93048L6.11114 2.14936H6.33183L6.15446 2.28323L6.22252 2.49998L6.04308 2.36611L5.86364 2.49998L5.9317 2.28111L5.75433 2.14723H5.97502L6.04308 1.93048ZM7.29708 1.93048L7.36514 2.14936H7.58789L7.40639 2.28323L7.47652 2.49998L7.29708 2.36611L7.11764 2.49998L7.18777 2.28111L7.00627 2.14723H7.22902L7.29708 1.93048ZM1.65408 2.48298L1.72214 2.69973H1.94695L1.76752 2.83361L1.83558 3.05248L1.65614 2.91648L1.4767 3.05036L1.54477 2.83361L1.36739 2.69973H1.58808L1.65408 2.48298ZM2.90808 2.48298L2.9782 2.69973H3.19889L3.01739 2.83361L3.08752 3.05248L2.90808 2.91648L2.72864 3.05036L2.7967 2.83361L2.61727 2.69973H2.84002L2.90808 2.48298ZM4.16208 2.48298L4.23014 2.69973H4.45289L4.27345 2.83361L4.34152 3.05248L4.16208 2.91648L3.98264 3.05036L4.0507 2.83361L3.87333 2.69973H4.09195L4.16208 2.48298ZM5.41608 2.48298L5.4862 2.69973H5.70689L5.52745 2.83361L5.59552 3.05248L5.41608 2.91648L5.2387 3.05036L5.3047 2.83361L5.12527 2.69973H5.35008L5.41608 2.48298ZM6.67008 2.48298L6.73814 2.69973H6.96089L6.78146 2.83361L6.84952 3.05248L6.67008 2.91648L6.49064 3.05036L6.55871 2.83361L6.38133 2.69973H6.60202L6.67008 2.48298ZM1.02708 3.03336L1.0972 3.25011H1.31583L1.13845 3.38398L1.20652 3.60286L1.02708 3.46686L0.849705 3.60073L0.915705 3.38398L0.736267 3.25011H0.96108L1.02708 3.03336ZM2.28108 3.03336L2.34914 3.25011H2.57189L2.39245 3.38398L2.45845 3.60073L2.28108 3.46686L2.10164 3.60073L2.1697 3.38398L1.99233 3.25011H2.21095L2.28108 3.03336ZM3.53508 3.03336L3.60314 3.25011H3.82383L3.64645 3.38398L3.71452 3.60286L3.53508 3.46686L3.35564 3.60073L3.4237 3.38398L3.24427 3.25011H3.46702L3.53508 3.03336ZM4.78908 3.03336L4.85714 3.25011H5.07989L4.90045 3.38398L4.96852 3.60286L4.78908 3.46686L4.60964 3.60073L4.67977 3.38398L4.49827 3.25011H4.71895L4.78908 3.03336ZM6.04308 3.03336L6.11114 3.25011H6.33183L6.15446 3.38398L6.22252 3.60286L6.04308 3.46686L5.86364 3.60073L5.9317 3.38398L5.75433 3.25011H5.97502L6.04308 3.03336ZM7.29708 3.03336L7.36514 3.25011H7.58789L7.40639 3.38398L7.47652 3.60286L7.29708 3.46686L7.11764 3.60073L7.18571 3.38398L7.00421 3.25011H7.22695L7.29708 3.03336ZM1.65408 3.58161L1.72214 3.80048H1.94695L1.76752 3.93223L1.83558 4.15111L1.65614 4.01511L1.4767 4.15111L1.54477 3.93223L1.36739 3.79836H1.58808L1.65408 3.58161ZM2.90808 3.58161L2.9782 3.80048H3.19889L3.01739 3.93223L3.08752 4.15111L2.90808 4.01511L2.72864 4.15111L2.7967 3.93223L2.61727 3.79836H2.84002L2.90808 3.58161ZM4.16208 3.58161L4.23014 3.80048H4.45289L4.27345 3.93223L4.34152 4.15111L4.16208 4.01511L3.98264 4.15111L4.0507 3.93223L3.87333 3.79836H4.09195L4.16208 3.58161ZM5.41608 3.58161L5.4862 3.80048H5.70689L5.52745 3.93223L5.59552 4.15111L5.41608 4.01511L5.2387 4.15111L5.3047 3.93223L5.12527 3.79836H5.35008L5.41608 3.58161ZM6.67008 3.58161L6.73814 3.80048H6.96089L6.78146 3.93223L6.84952 4.15111L6.67008 4.01511L6.49064 4.15111L6.55871 3.93223L6.38133 3.79836H6.60202L6.67008 3.58161ZM1.02708 4.12986L1.0972 4.34873H1.31583L1.13845 4.48261L1.20652 4.69723L1.02708 4.56548L0.849705 4.69723L0.915705 4.48048L0.736267 4.34661H0.96108L1.02708 4.12986ZM2.28108 4.12986L2.34914 4.34873H2.57189L2.39245 4.48261L2.46052 4.69723L2.28108 4.56548L2.10164 4.69723L2.17177 4.48048L1.99233 4.34661H2.21095L2.28108 4.12986ZM3.53508 4.12986L3.60314 4.34873H3.82383L3.64645 4.48261L3.71452 4.69723L3.53508 4.56548L3.35564 4.69723L3.4237 4.48048L3.24427 4.34661H3.46702L3.53508 4.12986ZM4.78908 4.12986L4.85714 4.34873H5.07989L4.90045 4.48261L4.96852 4.69723L4.78908 4.56548L4.60964 4.69723L4.67977 4.48048L4.49827 4.34661H4.71895L4.78908 4.12986ZM6.04308 4.12986L6.11114 4.34873H6.33183L6.15446 4.48261L6.22252 4.69723L6.04308 4.56548L5.86364 4.69723L5.9317 4.48048L5.75433 4.34661H5.97502L6.04308 4.12986ZM7.29708 4.12986L7.36514 4.34873H7.58789L7.40639 4.48261L7.47652 4.69723L7.29708 4.56548L7.11764 4.69723L7.18777 4.48048L7.00627 4.34661H7.22902L7.29708 4.12986ZM1.65408 4.68023L1.72214 4.89698H1.94695L1.76752 5.03086L1.83558 5.24973L1.65614 5.11373L1.4767 5.24761L1.54477 5.03086L1.36739 4.89698H1.58808L1.65408 4.68023ZM2.90808 4.68023L2.9782 4.89698H3.19889L3.01739 5.03086L3.08752 5.24973L2.90808 5.11373L2.72864 5.24761L2.7967 5.03086L2.61727 4.89698H2.84002L2.90808 4.68023ZM4.16208 4.68023L4.23014 4.89698H4.45289L4.27345 5.03086L4.34152 5.24973L4.16208 5.11373L3.98264 5.24761L4.0507 5.03086L3.87333 4.89698H4.09195L4.16208 4.68023ZM5.41608 4.68023L5.4862 4.89698H5.70689L5.52745 5.03086L5.59552 5.24973L5.41608 5.11373L5.2387 5.24761L5.3047 5.03086L5.12527 4.89698H5.35008L5.41608 4.68023ZM6.67008 4.68023L6.73814 4.89698H6.96089L6.78146 5.03086L6.84952 5.24973L6.67008 5.11373L6.49064 5.24761L6.55871 5.03086L6.38133 4.89698H6.60202L6.67008 4.68023ZM1.02708 5.23061L1.0972 5.44736H1.31583L1.13845 5.58123L1.20652 5.79798L1.02708 5.66411L0.849705 5.79798L0.915705 5.57911L0.736267 5.44523H0.96108L1.02708 5.23061ZM2.28108 5.23061L2.34914 5.44736H2.57189L2.39245 5.58123L2.46052 5.79798L2.28108 5.66411L2.10164 5.79798L2.17177 5.57911L1.99233 5.44523H2.21095L2.28108 5.23061ZM3.53508 5.23061L3.60314 5.44736H3.82383L3.65058 5.58123L3.71864 5.79798L3.5392 5.66411L3.35977 5.79798L3.42783 5.57911L3.24839 5.44523H3.47114L3.53508 5.23061ZM4.78908 5.23061L4.85714 5.44736H5.07989L4.90045 5.58123L4.96852 5.79798L4.78908 5.66411L4.60964 5.79798L4.67977 5.57911L4.49827 5.44523H4.71895L4.78908 5.23061ZM6.04308 5.23061L6.11114 5.44736H6.33183L6.15446 5.58123L6.22252 5.79798L6.04308 5.66411L5.86364 5.79798L5.9317 5.57911L5.75433 5.44523H5.97502L6.04308 5.23061ZM7.29708 5.23061L7.36514 5.44736H7.58789L7.40639 5.58123L7.47652 5.79798L7.29708 5.66411L7.11764 5.79798L7.18777 5.57911L7.00627 5.44523H7.22902L7.29708 5.23061Z" fill="white" />
	</g>
	<defs>
		<clipPath id="clip0_209_629">
			<rect x="0.400024" y="0.600098" width="13.2" height="10.2" rx="1.2" fill="white" />
		</clipPath>
	</defs>
</svg>
