<svg width="213" height="240" viewBox="0 0 213 240" fill="none" xmlns="http://www.w3.org/2000/svg">
	<path fill-rule="evenodd" clip-rule="evenodd" d="M59.7925 60.8316L118.967 93.3099L184.143 34.3031L125.825 0L59.7925 60.8316Z" fill="url(#paint0_linear_1006_14018)" />
	<path fill-rule="evenodd" clip-rule="evenodd" d="M143.486 153.266L203.748 186.45L174.406 235.612L113.317 203.593L143.486 153.266Z" fill="url(#paint1_linear_1006_14018)" />
	<path fill-rule="evenodd" clip-rule="evenodd" d="M51.0981 274.377L113.365 304.448L90.0837 233.205L29.3169 202.398L51.0981 274.377Z" fill="url(#paint2_linear_1006_14018)" />
	<path fill-rule="evenodd" clip-rule="evenodd" d="M62.5366 106.466L121.589 139.021V139.067L62.4907 106.466H62.5366Z" fill="#FF5E18" />
	<path fill-rule="evenodd" clip-rule="evenodd" d="M60.5449 112.079L119.72 144.557L184.926 85.566L126.623 51.2476L60.5449 112.079Z" fill="url(#paint3_linear_1006_14018)" />
	<path fill-rule="evenodd" clip-rule="evenodd" d="M117.272 130.281L176.998 163.388L203.754 186.451L143.492 153.268L117.272 130.281Z" fill="url(#paint4_linear_1006_14018)" />
	<path fill-rule="evenodd" clip-rule="evenodd" d="M159.624 184.871L220.467 217.794L220.222 243.954L158.874 211.43L159.624 184.871Z" fill="url(#paint5_linear_1006_14018)" />
	<path fill-rule="evenodd" clip-rule="evenodd" d="M158.874 211.43L220.222 243.955L143.414 273.013L81.6523 242.038L158.874 211.43Z" fill="url(#paint6_linear_1006_14018)" />
	<path fill-rule="evenodd" clip-rule="evenodd" d="M208.255 228.911L269.971 261.849L303.171 152.683L243.414 117.491L208.255 228.911Z" fill="url(#paint7_linear_1006_14018)" />
	<path fill-rule="evenodd" clip-rule="evenodd" d="M130.892 47.3361L189.133 81.7311L189.087 81.7771L130.861 47.3361H130.892Z" fill="#FF5E18" />
	<path fill-rule="evenodd" clip-rule="evenodd" d="M161.661 111.251L221.172 145.262L176.998 163.388L117.272 130.281L161.661 111.251Z" fill="url(#paint8_linear_1006_14018)" />
	<path fill-rule="evenodd" clip-rule="evenodd" d="M126.623 51.2476L184.925 85.566L251.631 88.7248L193.083 53.379L126.623 51.2476Z" fill="url(#paint9_linear_1006_14018)" />
	<path fill-rule="evenodd" clip-rule="evenodd" d="M120.177 309.862L183.271 340.255L264.594 270.223L202.756 237.499L120.177 309.862Z" fill="url(#paint10_linear_1006_14018)" />
	<path fill-rule="evenodd" clip-rule="evenodd" d="M29.3169 202.399L90.0837 233.206L119.717 144.558L60.5422 112.079L29.3169 202.399Z" fill="url(#paint11_linear_1006_14018)" />
	<path fill-rule="evenodd" clip-rule="evenodd" d="M162.317 86.2245L221.385 120.62L221.17 145.262L161.659 111.25L162.317 86.2245Z" fill="url(#paint12_linear_1006_14018)" />
	<path fill-rule="evenodd" clip-rule="evenodd" d="M243.442 108.75L303 144.096L268.974 67.3629L210.824 31.4803L243.442 108.75Z" fill="url(#paint13_linear_1006_14018)" />
	<path d="M75.7425 130.48L64.3544 124.362L38.2568 200.558L82.5692 224.173" stroke="#FF5E18" stroke-width="3" stroke-linecap="round" stroke-linejoin="round" />
	<path d="M59.0449 211.507L78.4536 153.221L83.0608 156.472L63.8665 214.222" stroke="#FF5E18" stroke-width="3" stroke-linecap="round" stroke-linejoin="round" />
	<path d="M197.325 63.6976L144.165 61.5814L115.817 85.8865L122.215 89.5207L137.139 76.8545" stroke="#FF5E18" stroke-width="3" stroke-linecap="round" stroke-linejoin="round" />
	<path d="M148.067 137.519L139.051 132.198L173.169 117.829L185.017 124.622" stroke="#FF5E18" stroke-width="3" stroke-linecap="round" stroke-linejoin="round" />
	<path d="M189.749 127.32L201.061 133.776" stroke="#FF5E18" stroke-width="3" stroke-linecap="round" stroke-linejoin="round" />
	<path d="M187.175 81.394L167.231 68.5284L200.063 70.3992" stroke="#FF5E18" stroke-width="3" stroke-linecap="round" stroke-linejoin="round" />
	<path d="M144.073 265.929L102.975 244.537L153.226 224.495" stroke="#FF5E18" stroke-width="3" stroke-linecap="round" stroke-linejoin="round" />
	<path fill-rule="evenodd" clip-rule="evenodd" d="M202.758 237.499L264.597 270.222L265.056 269.854L265.484 269.425L265.928 268.965L266.311 268.52L266.724 268.014L267.107 267.508L267.474 267.017L267.811 266.465L268.132 265.929L268.469 265.392L268.76 264.809L269.051 264.272L269.296 263.69L269.556 263.061L269.755 262.478L269.969 261.85L237.596 244.568L208.253 228.911L208.039 229.54L207.794 230.169L207.534 230.751L207.289 231.38L206.998 231.963L206.707 232.546L206.386 233.128L206.003 233.665L205.667 234.202L205.299 234.708L204.886 235.244L204.503 235.75L204.09 236.21L203.631 236.655L203.218 237.084L202.758 237.499Z" fill="white" stroke="white" stroke-width="3" stroke-linecap="round" stroke-linejoin="round" />
	<path d="M78.9868 71.3964L59.7925 60.831L97.2322 26.3593" stroke="white" stroke-width="3" stroke-linecap="round" stroke-linejoin="round" />
	<path d="M159.621 184.871L190.035 201.309" stroke="white" stroke-width="3" stroke-linecap="round" stroke-linejoin="round" />
	<path d="M156.331 130.741L179.107 121.203" stroke="#FF5E18" stroke-width="3" stroke-linecap="round" stroke-linejoin="round" />
	<path d="M100.936 204.774L77.7012 192.322L88.2167 160.044" stroke="#FF5E18" stroke-width="3" stroke-linecap="round" stroke-linejoin="round" />
	<path fill-rule="evenodd" clip-rule="evenodd" d="M210.826 31.4815L268.975 67.364L268.807 66.996L268.562 66.6127L268.348 66.2446L268.103 65.9073L267.843 65.6159L267.552 65.3246L267.261 65.0792L266.94 64.8185L266.603 64.6192L208.5 28.6907L208.836 28.89L209.127 29.1354L209.418 29.3961L209.709 29.6874L209.954 29.9788L210.199 30.3161L210.413 30.6841L210.612 31.0522L210.826 31.4815Z" fill="white" stroke="white" stroke-width="3" stroke-linecap="round" stroke-linejoin="round" />
	<path d="M38.5503 213.178L59.9182 284.882" stroke="#FF5E18" stroke-width="3" stroke-linecap="round" stroke-linejoin="round" />
	<path d="M66.5267 284.913L50.562 230.169L64.4756 236.824L80.5627 289.421" stroke="#FF5E18" stroke-width="3" stroke-linecap="round" stroke-linejoin="round" />
	<path d="M143.488 153.266L187.127 177.28" stroke="white" stroke-width="3" stroke-linecap="round" stroke-linejoin="round" />
	<path fill-rule="evenodd" clip-rule="evenodd" d="M113.32 203.61L159.622 184.872L158.872 211.431L81.6508 242.1L82.86 218.316L114.238 165.857L86.8091 141.215L87.9265 118.765L162.331 86.2868L161.658 111.312L117.269 130.343L143.504 153.344L113.32 203.61ZM124.126 29.6108L50.4408 97.8029L50.0735 98.1863L49.6602 98.5543L49.2776 98.9683L48.9561 99.4283L48.5734 99.8424L48.2367 100.302L47.9153 100.762L47.5785 101.268L47.2877 101.759L46.951 102.265L46.706 102.756L46.4152 103.308L46.1703 103.799L45.956 104.351L45.7417 104.887L45.5428 105.424L10.3378 206.263L10.1235 206.861L9.95517 207.398L9.78677 207.981L9.66434 208.517L9.58778 209.054L9.49595 209.637L9.41943 210.189V210.679V211.231V212.198V212.658V213.164L9.49595 213.624L9.58778 214.084L9.71026 214.544L33.4813 296.015L33.6496 296.475L33.818 296.889L33.9863 297.319L34.1853 297.733L34.3997 298.055L34.6445 298.438L34.8894 298.73L35.1803 299.021L35.4711 299.312L35.7619 299.558L36.0986 299.772L36.4354 299.972L36.8027 300.14L37.1395 300.263L37.5221 300.355L37.9354 300.432L112.784 312.515H113.029H113.442H113.657H113.902H114.116H114.575H114.82H115.019H115.279H115.478L115.738 312.439H115.937H116.198L116.397 312.347L116.641 312.27L116.902 312.147L117.101 312.055L117.361 311.933L117.606 311.81L117.805 311.687L118.065 311.565L118.264 311.442L118.524 311.273L118.769 311.104L118.968 310.982L119.228 310.813L119.427 310.598L119.687 310.445L119.886 310.276L120.131 310.062L202.786 237.699L203.246 237.285L203.659 236.871L204.118 236.411L204.531 235.951L204.899 235.445L205.312 234.908L205.695 234.402L206.016 233.865L206.399 233.328L206.735 232.746L207.026 232.163L207.317 231.58L207.562 230.952L207.807 230.369L208.067 229.74L208.266 229.127L243.471 117.707L243.685 117.078L243.808 116.496L243.93 115.913L244.053 115.33L244.145 114.747L244.221 114.165V113.582V112.999V112.447V111.911L244.145 111.42L244.053 110.868V110.377L243.93 109.871L243.762 109.411L243.594 108.951L210.96 31.6809L210.761 31.2669L210.547 30.8835L210.348 30.5155L210.088 30.1782L209.843 29.8868L209.552 29.5955L209.261 29.3501L208.97 29.0894L208.634 28.8901L208.266 28.7214L207.929 28.5527L207.486 28.1847L207.103 28.062H206.69L206.276 27.9853H205.863L130.968 26.4519H130.754H130.555H130.142H129.973H129.759L129.422 26.6513H129.208H129.009H128.795L128.596 26.7279L128.382 26.8199H128.183L127.968 26.9119L127.754 26.9886C126.414 27.6652 125.19 28.5503 124.126 29.6108ZM126.621 51.263L193.082 53.3791L221.261 122.384L190.051 220.325L117.56 284.147L51.1143 274.409L29.3332 202.414L60.5431 112.095L126.621 51.263Z" fill="#25211A" stroke="#FF5E18" stroke-width="3" stroke-linecap="round" stroke-linejoin="round" />
	<path fill-rule="evenodd" clip-rule="evenodd" d="M52.5516 203.686L42.8779 198.518L48.526 182.785L57.6181 187.953L52.5516 203.686Z" fill="#FF5E18" />
	<path fill-rule="evenodd" clip-rule="evenodd" d="M121.217 70.9821L116.64 67.8999L71.4707 108.965L76.4606 111.664L121.217 70.9821Z" fill="#FF5E18" />
	<path d="M124.344 199.147L146.278 163.418L153.931 167.589" stroke="#FF5E18" stroke-width="3" stroke-linecap="round" stroke-linejoin="round" />
	<path d="M146.532 258.6L119.93 245.243L161.732 228.299" stroke="#FF5E18" stroke-width="3" stroke-linecap="round" stroke-linejoin="round" />
	<path d="M179.352 90.2275L184.021 85.5658L206.659 86.5625" stroke="#FF5E18" stroke-width="3" stroke-linecap="round" stroke-linejoin="round" />
	<path d="M144.164 61.5814L184.925 85.5644" stroke="#FF5E18" stroke-width="3" stroke-miterlimit="10" />
	<path d="M162.317 86.2245L200.843 108.674" stroke="white" stroke-width="3" stroke-miterlimit="10" />
	<path d="M201.471 184.364L176.996 163.387L203.43 152.561" stroke="#FF5E18" stroke-width="3" stroke-linecap="round" stroke-linejoin="round" />
	<path d="M98.6557 151.764L114.238 165.795L82.8594 218.254" stroke="white" stroke-width="3" stroke-linecap="round" stroke-linejoin="round" />
	<path d="M87.2676 132.32L87.9258 118.703L146.075 93.3093" stroke="white" stroke-width="3" stroke-miterlimit="10" />
	<path d="M58.0014 239.17C57.9571 238.969 57.989 238.759 58.0908 238.581C58.1927 238.402 58.3573 238.268 58.5525 238.204C58.65 238.176 58.752 238.168 58.8527 238.18C58.9534 238.192 59.0507 238.224 59.139 238.274C59.2273 238.324 59.3048 238.391 59.367 238.471C59.4293 238.551 59.475 238.643 59.5015 238.741L60.328 241.654C60.3635 241.75 60.379 241.852 60.3733 241.953C60.3675 242.055 60.3408 242.154 60.2947 242.245C60.2487 242.336 60.1844 242.416 60.1058 242.481C60.0272 242.545 59.9361 242.593 59.8382 242.621C59.7418 242.651 59.6401 242.663 59.5393 242.654C59.4384 242.645 59.3403 242.616 59.2506 242.569C59.1609 242.522 59.0814 242.458 59.0167 242.38C58.9521 242.302 58.9035 242.211 58.8739 242.114L58.0014 239.17ZM68.8996 271.097C68.9304 271.193 68.9417 271.295 68.933 271.396C68.9242 271.497 68.8954 271.595 68.8484 271.685C68.8015 271.775 68.7372 271.855 68.6593 271.919C68.5814 271.984 68.4914 272.033 68.3946 272.063C68.2018 272.116 67.9958 272.093 67.8192 271.999C67.6427 271.905 67.5089 271.747 67.4456 271.557L66.5731 268.597C66.5249 268.4 66.5535 268.192 66.653 268.015C66.7526 267.839 66.9156 267.707 67.1088 267.646C67.3077 267.589 67.521 267.614 67.7018 267.715C67.8826 267.815 68.0162 267.984 68.0731 268.183L68.8996 271.097ZM66.7721 263.767C66.8246 263.966 66.7982 264.178 66.6984 264.358C66.5985 264.538 66.4329 264.672 66.2363 264.733C66.0416 264.779 65.8364 264.748 65.6647 264.644C65.493 264.541 65.3685 264.375 65.3179 264.181L64.4454 261.236C64.3914 261.041 64.4136 260.833 64.5074 260.653C64.6012 260.474 64.7597 260.337 64.9506 260.27C65.1472 260.222 65.3549 260.251 65.5312 260.351C65.7075 260.45 65.8392 260.614 65.8996 260.807L66.7721 263.767ZM64.6138 256.406C64.6469 256.501 64.6604 256.601 64.6534 256.701C64.6465 256.801 64.6192 256.898 64.5734 256.987C64.5275 257.076 64.464 257.155 64.3867 257.218C64.3095 257.282 64.2201 257.329 64.124 257.357C63.9251 257.414 63.7119 257.389 63.5311 257.288C63.3503 257.188 63.2167 257.019 63.1597 256.82L62.2873 253.907C62.2422 253.708 62.2718 253.499 62.3707 253.321C62.4696 253.143 62.6306 253.007 62.823 252.941C62.9193 252.908 63.0214 252.895 63.123 252.902C63.2246 252.91 63.3235 252.939 63.4137 252.986C63.504 253.033 63.5836 253.099 63.6478 253.178C63.7121 253.257 63.7595 253.348 63.7873 253.447L64.6138 256.406Z" fill="white" />
	<path d="M65.9472 129.944C65.9768 129.848 66.0249 129.76 66.0888 129.684C66.1527 129.608 66.231 129.545 66.3193 129.499C66.4076 129.454 66.5041 129.426 66.6031 129.418C66.7022 129.41 66.8018 129.422 66.8962 129.453C67.0941 129.519 67.2579 129.661 67.3523 129.848C67.4468 130.034 67.4644 130.25 67.4014 130.45L66.4523 133.363C66.4198 133.457 66.3689 133.544 66.3026 133.618C66.2363 133.692 66.156 133.752 66.0663 133.795C65.9765 133.838 65.8792 133.862 65.78 133.867C65.6807 133.872 65.5815 133.857 65.4881 133.823C65.3902 133.796 65.2991 133.748 65.2205 133.683C65.1419 133.619 65.0775 133.539 65.0315 133.448C64.9855 133.357 64.9588 133.258 64.953 133.156C64.9473 133.054 64.9627 132.952 64.9982 132.857L65.9472 129.944ZM52.1714 177.035C52.1418 177.132 52.0932 177.223 52.0285 177.301C51.9639 177.379 51.8844 177.443 51.7947 177.49C51.705 177.537 51.6069 177.566 51.506 177.575C51.4052 177.584 51.3035 177.572 51.2071 177.542C51.1122 177.512 51.0242 177.464 50.9481 177.4C50.8719 177.336 50.8093 177.257 50.7637 177.169C50.7182 177.08 50.6906 176.984 50.6826 176.884C50.6746 176.785 50.6864 176.685 50.7173 176.591L51.6663 173.662C51.694 173.566 51.741 173.476 51.8044 173.399C51.8679 173.321 51.9464 173.258 52.0353 173.212C52.1241 173.166 52.2214 173.139 52.3211 173.132C52.4208 173.125 52.5209 173.138 52.6153 173.171C52.7115 173.199 52.8012 173.246 52.879 173.31C52.9568 173.373 53.0211 173.451 53.0682 173.54C53.1153 173.628 53.1442 173.726 53.1531 173.826C53.1621 173.926 53.151 174.026 53.1204 174.122L52.1714 177.035ZM59.3195 155.184C59.2565 155.377 59.1195 155.537 58.9387 155.629C58.7579 155.721 58.5481 155.738 58.3552 155.675C58.2579 155.649 58.167 155.603 58.0885 155.54C58.01 155.477 57.9456 155.398 57.8994 155.308C57.8533 155.219 57.8264 155.12 57.8205 155.02C57.8147 154.919 57.83 154.818 57.8654 154.724L58.8144 151.81C58.8744 151.618 59.0077 151.457 59.1853 151.362C59.3629 151.268 59.5706 151.247 59.7634 151.304C59.8602 151.334 59.9502 151.383 60.0281 151.447C60.106 151.512 60.1704 151.592 60.2173 151.682C60.2643 151.772 60.293 151.87 60.3018 151.971C60.3106 152.072 60.2993 152.174 60.2685 152.27L59.3195 155.184ZM64.0952 140.647C64.0302 140.84 63.8913 141 63.7091 141.09C63.5268 141.181 63.316 141.195 63.1232 141.13C62.9304 141.065 62.7713 140.926 62.6808 140.743C62.5904 140.561 62.5761 140.349 62.641 140.156L63.59 137.243C63.6178 137.145 63.6653 137.053 63.7295 136.974C63.7937 136.895 63.8734 136.829 63.9636 136.782C64.0539 136.735 64.1528 136.706 64.2543 136.698C64.3559 136.691 64.458 136.704 64.5543 136.737C64.6521 136.769 64.7424 136.821 64.82 136.889C64.8977 136.957 64.9611 137.04 65.0066 137.133C65.0521 137.225 65.0789 137.326 65.0854 137.429C65.0918 137.532 65.0778 137.636 65.0442 137.733L64.0952 140.647Z" fill="white" />
	<path d="M29.3169 202.399L60.5422 112.079L126.62 51.2476" stroke="white" stroke-width="3" stroke-linecap="round" stroke-linejoin="round" />
	<path d="M221.246 122.369L190.036 220.294L117.56 284.131L51.0991 274.379" stroke="white" stroke-width="3" stroke-linecap="round" stroke-linejoin="round" />
	<path d="M184.604 225.047L158.874 211.43L81.6523 242.038" stroke="white" stroke-width="3" stroke-linecap="round" stroke-linejoin="round" />
	<path d="M157.095 217.764C157.282 217.705 157.484 217.719 157.661 217.805C157.838 217.89 157.975 218.041 158.044 218.225C158.12 218.412 158.119 218.621 158.042 218.808C157.965 218.995 157.817 219.143 157.631 219.221L154.768 220.31C154.577 220.378 154.367 220.372 154.18 220.292C153.993 220.213 153.842 220.066 153.758 219.881C153.693 219.687 153.704 219.476 153.789 219.29C153.875 219.105 154.028 218.96 154.217 218.884L157.095 217.764ZM104.808 239.662C104.713 239.699 104.611 239.716 104.509 239.712C104.407 239.709 104.306 239.685 104.214 239.642C104.121 239.599 104.038 239.538 103.969 239.463C103.9 239.387 103.847 239.298 103.813 239.202C103.779 239.109 103.765 239.011 103.769 238.913C103.774 238.814 103.799 238.718 103.842 238.629C103.885 238.541 103.945 238.462 104.019 238.397C104.093 238.332 104.179 238.282 104.272 238.251L107.134 237.132C107.225 237.093 107.324 237.074 107.422 237.076C107.521 237.078 107.618 237.1 107.708 237.142C107.797 237.184 107.877 237.244 107.942 237.319C108.007 237.394 108.055 237.482 108.083 237.577C108.123 237.667 108.143 237.764 108.144 237.863C108.144 237.961 108.124 238.059 108.086 238.149C108.047 238.24 107.99 238.321 107.919 238.389C107.847 238.457 107.763 238.509 107.67 238.543L104.808 239.662ZM119.104 234.126C119.012 234.166 118.913 234.187 118.812 234.188C118.712 234.189 118.612 234.169 118.519 234.13C118.426 234.092 118.342 234.035 118.272 233.963C118.201 233.891 118.146 233.806 118.109 233.712C118.069 233.62 118.049 233.52 118.048 233.42C118.047 233.319 118.067 233.219 118.105 233.126C118.144 233.033 118.201 232.949 118.272 232.878C118.344 232.808 118.429 232.752 118.523 232.716L121.385 231.581C121.578 231.515 121.789 231.526 121.974 231.612C122.159 231.698 122.304 231.851 122.38 232.041C122.45 232.232 122.443 232.443 122.36 232.63C122.277 232.816 122.125 232.962 121.936 233.038L119.104 234.126ZM133.355 228.637C133.161 228.688 132.956 228.671 132.774 228.587C132.592 228.503 132.446 228.358 132.36 228.177C132.29 227.983 132.299 227.77 132.385 227.584C132.471 227.397 132.627 227.252 132.819 227.18L135.65 226.091C135.743 226.051 135.842 226.03 135.943 226.03C136.043 226.029 136.143 226.048 136.235 226.087C136.328 226.126 136.412 226.183 136.483 226.254C136.553 226.326 136.609 226.411 136.645 226.505C136.722 226.692 136.721 226.902 136.643 227.089C136.566 227.275 136.418 227.424 136.232 227.502L133.355 228.637ZM147.62 223.086C147.528 223.122 147.429 223.139 147.33 223.137C147.231 223.134 147.133 223.111 147.043 223.069C146.953 223.028 146.872 222.969 146.806 222.895C146.739 222.821 146.688 222.735 146.656 222.641C146.583 222.451 146.585 222.241 146.662 222.053C146.739 221.865 146.884 221.713 147.069 221.629L149.947 220.555C150.134 220.483 150.342 220.486 150.527 220.563C150.712 220.64 150.861 220.786 150.942 220.969C150.978 221.065 150.995 221.167 150.992 221.269C150.988 221.371 150.965 221.472 150.922 221.565C150.879 221.658 150.818 221.741 150.743 221.81C150.667 221.879 150.579 221.932 150.482 221.966L147.62 223.086Z" fill="white" />
	<path d="M174.334 228.42C174.523 228.343 174.735 228.344 174.924 228.421C175.113 228.498 175.264 228.647 175.345 228.834C175.381 228.93 175.398 229.032 175.395 229.134C175.391 229.236 175.368 229.337 175.325 229.43C175.282 229.523 175.221 229.606 175.146 229.675C175.07 229.744 174.982 229.797 174.885 229.831L172.054 230.966C171.861 231.031 171.65 231.02 171.465 230.935C171.28 230.849 171.134 230.696 171.059 230.506C171.022 230.41 171.005 230.308 171.009 230.206C171.012 230.104 171.036 230.003 171.079 229.91C171.121 229.818 171.182 229.734 171.258 229.665C171.333 229.596 171.422 229.543 171.518 229.509L174.334 228.42ZM136.359 244.782C136.166 244.84 135.958 244.826 135.774 244.741C135.591 244.656 135.445 244.507 135.364 244.322C135.305 244.13 135.317 243.923 135.399 243.74C135.481 243.557 135.626 243.409 135.808 243.325L138.686 242.237C138.776 242.2 138.872 242.182 138.97 242.184C139.067 242.186 139.163 242.208 139.252 242.248C139.341 242.288 139.42 242.346 139.486 242.417C139.552 242.489 139.602 242.574 139.635 242.666C139.711 242.853 139.71 243.063 139.633 243.25C139.555 243.436 139.407 243.585 139.221 243.663L136.359 244.782ZM164.906 233.711C164.718 233.783 164.511 233.78 164.325 233.703C164.14 233.626 163.992 233.48 163.911 233.297C163.874 233.201 163.857 233.099 163.861 232.997C163.864 232.895 163.888 232.794 163.931 232.701C163.973 232.608 164.034 232.525 164.11 232.456C164.185 232.387 164.274 232.334 164.37 232.3L167.186 231.165C167.282 231.124 167.386 231.103 167.49 231.104C167.595 231.105 167.698 231.128 167.793 231.171C167.888 231.215 167.973 231.277 168.043 231.356C168.112 231.434 168.164 231.526 168.196 231.625C168.233 231.717 168.251 231.815 168.25 231.913C168.248 232.012 168.226 232.109 168.186 232.199C168.146 232.289 168.089 232.37 168.017 232.438C167.945 232.505 167.86 232.557 167.768 232.591L164.906 233.711Z" fill="white" />
	<path d="M180.291 130.495C180.472 130.416 180.677 130.41 180.862 130.478C181.048 130.547 181.199 130.685 181.286 130.863C181.326 130.954 181.349 131.051 181.351 131.151C181.354 131.25 181.337 131.349 181.302 131.441C181.266 131.534 181.213 131.619 181.144 131.691C181.076 131.762 180.994 131.82 180.903 131.86L178.086 133.117C177.899 133.189 177.692 133.187 177.506 133.11C177.321 133.033 177.173 132.887 177.092 132.703C177.012 132.519 177.005 132.312 177.074 132.124C177.142 131.935 177.28 131.781 177.459 131.691L180.291 130.495ZM156.979 142.226C156.792 142.302 156.583 142.301 156.396 142.224C156.21 142.146 156.062 141.998 155.984 141.812C155.905 141.63 155.899 141.425 155.967 141.239C156.036 141.054 156.173 140.901 156.351 140.815L159.183 139.604C159.273 139.563 159.371 139.54 159.47 139.538C159.569 139.535 159.668 139.552 159.76 139.587C159.853 139.623 159.937 139.677 160.009 139.745C160.081 139.814 160.138 139.896 160.178 139.987C160.257 140.169 160.263 140.374 160.194 140.559C160.126 140.745 159.988 140.897 159.811 140.984L156.979 142.226ZM171.03 136.092C170.843 136.164 170.635 136.162 170.45 136.085C170.265 136.007 170.116 135.862 170.035 135.678C169.956 135.497 169.95 135.291 170.019 135.106C170.087 134.92 170.225 134.768 170.403 134.681L173.234 133.47C173.415 133.391 173.62 133.385 173.806 133.453C173.991 133.522 174.143 133.66 174.229 133.838C174.309 134.022 174.315 134.229 174.247 134.417C174.179 134.606 174.041 134.761 173.862 134.85L171.03 136.092Z" fill="white" />
	<path d="M107.992 87.0228C108.062 86.949 108.147 86.8903 108.24 86.8501C108.334 86.81 108.434 86.7893 108.536 86.7893C108.637 86.7893 108.738 86.81 108.831 86.8501C108.925 86.8903 109.009 86.949 109.079 87.0228C109.219 87.1661 109.298 87.3588 109.298 87.5595C109.298 87.7602 109.219 87.9529 109.079 88.0962L106.829 90.1817C106.675 90.3087 106.477 90.3716 106.278 90.3573C106.079 90.343 105.893 90.2527 105.758 90.105C105.684 90.0348 105.625 89.9504 105.585 89.8568C105.545 89.7632 105.525 89.6624 105.525 89.5606C105.525 89.4588 105.545 89.358 105.585 89.2645C105.625 89.1709 105.684 89.0864 105.758 89.0162L107.992 87.0228ZM84.1755 110.883C84.1068 110.956 84.0238 111.015 83.9316 111.055C83.8395 111.095 83.7401 111.115 83.6397 111.115C83.5393 111.115 83.44 111.095 83.3478 111.055C83.2557 111.015 83.1727 110.956 83.104 110.883C82.9638 110.74 82.8853 110.547 82.8853 110.346C82.8853 110.146 82.9638 109.953 83.104 109.81L85.3541 107.724C85.4252 107.652 85.5099 107.595 85.6031 107.556C85.6964 107.517 85.7964 107.497 85.8975 107.497C85.9985 107.497 86.0985 107.517 86.1918 107.556C86.2851 107.595 86.3697 107.652 86.4409 107.724C86.5145 107.794 86.5731 107.879 86.6132 107.972C86.6532 108.066 86.6739 108.167 86.6739 108.269C86.6739 108.37 86.6532 108.471 86.6132 108.565C86.5731 108.658 86.5145 108.743 86.4409 108.813L84.1755 110.883ZM89.8389 105.715C89.6933 105.857 89.4984 105.936 89.2955 105.936C89.0927 105.936 88.8977 105.857 88.7521 105.715C88.6789 105.647 88.6206 105.563 88.5807 105.471C88.5408 105.379 88.5202 105.279 88.5202 105.179C88.5202 105.078 88.5408 104.979 88.5807 104.886C88.6206 104.794 88.6789 104.711 88.7521 104.642L90.9869 102.557C91.1325 102.415 91.3274 102.336 91.5302 102.336C91.7331 102.336 91.928 102.415 92.0736 102.557C92.1489 102.624 92.2091 102.707 92.2503 102.799C92.2916 102.892 92.3129 102.992 92.3129 103.093C92.3129 103.195 92.2916 103.295 92.2503 103.387C92.2091 103.48 92.1489 103.562 92.0736 103.63L89.8389 105.715ZM95.487 100.548C95.3413 100.689 95.1465 100.768 94.9436 100.768C94.7408 100.768 94.5458 100.689 94.4002 100.548C94.3266 100.478 94.268 100.393 94.2279 100.3C94.1878 100.206 94.1672 100.105 94.1672 100.003C94.1672 99.9015 94.1878 99.8008 94.2279 99.7072C94.268 99.6136 94.3266 99.5292 94.4002 99.459L96.6503 97.3735C96.7933 97.233 96.9857 97.1543 97.186 97.1543C97.3863 97.1543 97.5787 97.233 97.7217 97.3735C97.7954 97.4437 97.854 97.5281 97.8941 97.6217C97.9341 97.7153 97.9548 97.816 97.9548 97.9179C97.9548 98.0197 97.9341 98.1205 97.8941 98.214C97.854 98.3076 97.7954 98.3921 97.7217 98.4622L95.487 100.548Z" fill="white" />
	<path d="M163.742 144.556C163.561 144.64 163.355 144.648 163.169 144.579C162.982 144.51 162.83 144.369 162.747 144.188C162.678 144.008 162.675 143.808 162.739 143.625C162.804 143.442 162.932 143.288 163.099 143.192L165.931 141.98C166.12 141.913 166.328 141.92 166.513 141.999C166.697 142.079 166.845 142.225 166.926 142.41C166.966 142.502 166.987 142.602 166.987 142.702C166.988 142.803 166.968 142.903 166.93 142.996C166.891 143.089 166.835 143.173 166.763 143.243C166.691 143.314 166.606 143.369 166.513 143.406L163.742 144.556ZM170.768 141.49C170.587 141.573 170.381 141.581 170.194 141.512C170.008 141.443 169.856 141.303 169.773 141.122C169.688 140.934 169.678 140.72 169.747 140.526C169.815 140.332 169.956 140.171 170.14 140.079L172.972 138.867C173.159 138.795 173.367 138.798 173.552 138.875C173.737 138.952 173.886 139.098 173.967 139.281C174.009 139.375 174.032 139.476 174.034 139.578C174.036 139.68 174.017 139.782 173.978 139.877C173.94 139.972 173.882 140.057 173.809 140.129C173.736 140.201 173.649 140.257 173.554 140.293L170.768 141.49Z" fill="white" />
	<defs>
		<linearGradient id="paint0_linear_1006_14018" x1="64.5997" y1="39.6546" x2="158.001" y2="9.85115" gradientUnits="userSpaceOnUse">
			<stop stop-color="#FF5E18" />
			<stop offset="1" stop-color="#121212" />
		</linearGradient>
		<linearGradient id="paint1_linear_1006_14018" x1="103.901" y1="226.929" x2="195.733" y2="180.129" gradientUnits="userSpaceOnUse">
			<stop stop-color="#FF5E18" />
			<stop offset="1" stop-color="#121212" />
		</linearGradient>
		<linearGradient id="paint2_linear_1006_14018" x1="39.7833" y1="245.79" x2="97.7605" y2="243.648" gradientUnits="userSpaceOnUse">
			<stop stop-color="#FF5E18" />
			<stop offset="1" stop-color="#121212" />
		</linearGradient>
		<linearGradient id="paint3_linear_1006_14018" x1="82.6676" y1="137.502" x2="149.257" y2="75.4396" gradientUnits="userSpaceOnUse">
			<stop stop-color="#FF5E18" />
			<stop offset="1" stop-color="#121212" />
		</linearGradient>
		<linearGradient id="paint4_linear_1006_14018" x1="125.516" y1="138.974" x2="173.788" y2="164.35" gradientUnits="userSpaceOnUse">
			<stop stop-color="#FF5E18" />
			<stop offset="1" stop-color="#121212" />
		</linearGradient>
		<linearGradient id="paint5_linear_1006_14018" x1="147.22" y1="204.172" x2="202.087" y2="205.107" gradientUnits="userSpaceOnUse">
			<stop stop-color="#FF5E18" />
			<stop offset="1" stop-color="#121212" />
		</linearGradient>
		<linearGradient id="paint6_linear_1006_14018" x1="99.8726" y1="259.25" x2="180.097" y2="230.569" gradientUnits="userSpaceOnUse">
			<stop stop-color="#FF5E18" />
			<stop offset="1" stop-color="#121212" />
		</linearGradient>
		<linearGradient id="paint7_linear_1006_14018" x1="198.533" y1="225.967" x2="284.396" y2="145.617" gradientUnits="userSpaceOnUse">
			<stop stop-color="#FF5E18" />
			<stop offset="1" stop-color="#121212" />
		</linearGradient>
		<linearGradient id="paint8_linear_1006_14018" x1="116.146" y1="151.033" x2="160.012" y2="110.638" gradientUnits="userSpaceOnUse">
			<stop stop-color="#FF5E18" />
			<stop offset="1" stop-color="#121212" />
		</linearGradient>
		<linearGradient id="paint9_linear_1006_14018" x1="186.249" y1="100.904" x2="196.337" y2="50.6501" gradientUnits="userSpaceOnUse">
			<stop stop-color="#FF5E18" />
			<stop offset="1" stop-color="#121212" />
		</linearGradient>
		<linearGradient id="paint10_linear_1006_14018" x1="157.206" y1="340.976" x2="224.686" y2="268.26" gradientUnits="userSpaceOnUse">
			<stop stop-color="#FF5E18" />
			<stop offset="1" stop-color="#121212" />
		</linearGradient>
		<linearGradient id="paint11_linear_1006_14018" x1="94.238" y1="235.917" x2="115.614" y2="134.986" gradientUnits="userSpaceOnUse">
			<stop stop-color="#FF5E18" />
			<stop offset="1" stop-color="#121212" />
		</linearGradient>
		<linearGradient id="paint12_linear_1006_14018" x1="161.039" y1="89.6805" x2="212.431" y2="118.471" gradientUnits="userSpaceOnUse">
			<stop stop-color="#FF5E18" />
			<stop offset="1" stop-color="#121212" />
		</linearGradient>
		<linearGradient id="paint13_linear_1006_14018" x1="250.573" y1="31.2198" x2="269.773" y2="125.513" gradientUnits="userSpaceOnUse">
			<stop stop-color="#E7703D" />
			<stop offset="1" stop-color="#121212" />
		</linearGradient>
	</defs>
</svg>
