<svg width="234" height="251" viewBox="0 0 234 251" fill="none" xmlns="http://www.w3.org/2000/svg">
	<path d="M91.9924 273.454C83.1334 278.035 68.4857 279.78 66.6463 266.165C65.8753 260.579 61.7231 246.614 51.2276 257.451C42.3416 266.695 28.4919 263.218 24.8942 249.714C20.1198 231.658 12.5593 229.661 1.23877 232.272C14.8721 216.575 72.7867 197.653 91.1809 166.372" stroke="white" stroke-width="1.47779" stroke-linecap="round" stroke-linejoin="round" />
	<path fill-rule="evenodd" clip-rule="evenodd" d="M121.503 74.1505C144.747 82.2703 171.621 79.4094 191.641 73.5054C206.284 77.7125 221.617 82.7611 234.635 97.4581C238.698 102.03 240.933 114.904 241.665 121.481C241.922 123.921 242.139 126.403 242.396 128.914C244.428 149.949 244.428 147.72 230.205 170.761L234.946 171.209L245.281 181.573V200.365L231.817 220.924L217.811 231.849C222.877 243.839 224.719 257.218 227.51 269.965L232.481 284.48L241.055 312.233C243.599 321.966 247.061 331.417 251.39 340.449L254.844 347.882C257.028 352.13 258.693 356.643 259.802 361.317C260.804 368.328 262.349 377.879 253.991 381.076C246.609 383.881 237.113 385.802 229.867 381.497C222.918 377.43 222.186 375.41 220.046 362.158C218.8 361.387 217.554 360.671 216.294 359.914C209.86 356.591 210.009 355.37 209.088 347.531C208.831 345.357 208.722 343.576 209.752 342.539C208.682 337.827 211.106 335.162 210.158 330.24C209.035 324.917 207.396 319.726 205.268 314.743C202.329 307.395 199.2 300.159 196.071 292.894L190.517 279.908C177.858 263.636 167.088 245.882 158.428 227.01L157.547 225.608C151.479 240.571 144.964 255.38 131.811 272.405L128.1 285.924L125.079 318.67C124.524 324.462 124.605 322.555 126.366 327.589C127.802 331.796 127.802 335.653 128.018 340.421C129.17 342.398 129.089 341.978 129.089 344.264V349.705C126 354.767 116.776 356.142 112.36 356.605C102.458 357.628 99.3021 359.493 90.7685 363.224C78.1441 368.833 63.9485 369.661 55.9025 362.999V356.717C55.9025 354.01 55.7129 354.655 57.555 352.72C60.684 344.306 67.4161 343.001 76.8573 339.425C81.1731 333.723 85.857 328.331 90.8768 323.284L93.8162 284.522C89.8474 273.78 92.8274 263.991 99.0447 258.438L100.223 242.745L98.4217 242.366C93.4098 241.301 90.9852 241.258 91.6489 234.373L94.2226 214.15C94.7102 210.336 96.1054 209.803 99.4918 209.803H103.42L107.795 188.178C105.086 187.421 106.075 176.959 107.944 175.949C108.933 167.311 109.299 163.048 112.008 154.788L109.8 153.722L106.427 154.675C101.415 157.34 92.6648 158.322 84.2396 157.031C56.1057 152.684 65.0457 118.494 80.7449 103.11C76.7761 88.1883 81.0022 74.6273 67.2807 64.502C64.5716 62.0198 66.1835 56.1579 69.6105 58.7102L103.989 84.1495C107.89 80.0264 114.107 75.3846 121.503 74.1505Z" fill="url(#paint0_linear_1006_14104)" />
	<path fill-rule="evenodd" clip-rule="evenodd" d="M111.965 154.645C109.338 162.602 108.862 166.907 107.978 174.907C110.155 170.518 113.34 165.519 117.259 162.518C116.551 161.979 115.898 161.441 115.15 160.946C114.732 160.693 114.378 160.338 114.12 159.912C113.862 159.487 113.706 159.002 113.666 158.501C113.626 157.999 113.702 157.495 113.89 157.03C114.077 156.566 114.369 156.156 114.741 155.834L115.15 155.565C113.29 155.042 111.47 154.375 109.706 153.569L111.965 154.645Z" fill="white" />
	<path fill-rule="evenodd" clip-rule="evenodd" d="M219.872 139.844C209.157 138.211 205.847 151.008 197.451 162.638L190.669 155.598L196.203 146.545L201.629 140.393L187.387 114.797L190.1 90.131L201.086 84.7528C195.267 97.269 206.987 122.836 219.872 139.844Z" fill="#FF5E18" />
	<path fill-rule="evenodd" clip-rule="evenodd" d="M206.656 79.9563C200.104 82.247 187.705 85.901 179.827 87.7701L169.241 95.2888L171.366 95.2185L172.219 93.4196H180.815L182.168 95.2466L185.58 95.3169L186.649 102.414L184.727 118.73L169.837 117.915L166.777 117.775L165.6 113.559V113.362L168.307 95.9212C161.539 100.84 156.327 107.417 151.292 113.854L159.413 121.105C165.533 120.552 171.699 121.085 177.647 122.679C181.54 123.781 185.253 125.476 188.666 127.711C193.654 131.09 198.052 135.324 201.674 140.232C199.002 135.522 196.845 130.516 195.245 125.307C194.106 121.566 193.26 117.736 192.713 113.854C191.36 104.171 192.415 94.9656 196.774 88.9787C197.356 86.9128 201.512 81.6568 214.521 81.6146C215.956 81.8254 209.093 79.8438 206.656 79.9563Z" fill="white" />
	<path d="M109.524 274.664C117.451 274.664 116.581 268.561 117.639 260.936C118.833 250.852 120.826 240.888 123.597 231.148C126.69 220.674 130.399 210.549 134.001 199.935C134.617 197.142 135.193 194.279 135.822 191.444" stroke="black" stroke-width="1.47779" stroke-linecap="round" stroke-linejoin="round" />
	<path d="M134.825 268.262C129.022 262.296 123.288 258.109 128.723 245.491C133.089 235.359 138.043 225.505 143.557 215.983" stroke="black" stroke-width="1.47779" stroke-linecap="round" stroke-linejoin="round" />
	<path d="M154.901 191.978C160.298 212.263 166.41 221.678 176.151 239.64C178.134 243.487 180.077 247.32 182.046 251.153C184.974 256.889 187.659 262.345 190.222 267.941C194.472 277.062 194.472 280.448 201.825 280.532" stroke="black" stroke-width="1.47779" stroke-linecap="round" stroke-linejoin="round" />
	<path d="M193.059 241.589C198.093 249.971 200.832 257.556 204.403 267.195" stroke="black" stroke-width="1.47779" stroke-linecap="round" stroke-linejoin="round" />
	<path d="M212.138 235.188C216.042 247.347 217.095 258.359 225.029 257.551" stroke="black" stroke-width="1.47779" stroke-linecap="round" stroke-linejoin="round" />
	<path d="M117.775 213.849C120.613 206.253 122.686 198.39 123.963 190.377" stroke="black" stroke-width="1.47779" stroke-linecap="round" stroke-linejoin="round" />
	<path d="M121.9 201.404C116.043 200.656 115.537 200.019 112.103 211.182" stroke="black" stroke-width="1.47779" stroke-linecap="round" stroke-linejoin="round" />
	<path d="M131.182 207.981L136.854 209.582" stroke="black" stroke-width="1.47779" stroke-linecap="round" stroke-linejoin="round" />
	<path d="M160.573 208.515C157.869 208.891 155.99 209.251 153.354 209.582" stroke="black" stroke-width="1.47779" stroke-linecap="round" stroke-linejoin="round" />
	<path d="M173.98 210.649C172.827 209.074 171.66 207.541 170.507 206.007C170.122 204.54 169.724 203.087 169.339 201.58" stroke="black" stroke-width="1.47779" stroke-linecap="round" stroke-linejoin="round" />
	<path d="M203.888 169.039C214.122 157.653 216.714 149.718 228.123 155.514" stroke="black" stroke-width="1.47779" stroke-linecap="round" stroke-linejoin="round" />
	<path d="M218.841 170.106C232.442 148.076 234.84 149.949 232.482 124.229" stroke="black" stroke-width="1.47779" stroke-linecap="round" stroke-linejoin="round" />
	<path d="M195.122 125.297C197.098 124.699 199.035 124.128 200.998 123.516C201.988 123.166 203.069 123.217 204.025 123.658C204.98 124.1 205.739 124.899 206.148 125.896C206.444 126.467 206.767 127.079 207.062 127.678C209.295 131.853 213.275 132.702 215.278 127.873C217 123.822 218.68 119.744 220.388 115.693" stroke="black" stroke-width="1.47779" stroke-linecap="round" stroke-linejoin="round" />
	<path d="M215.867 110.359C212.485 118.895 211.586 116.792 217.294 123.695" stroke="black" stroke-width="1.47779" stroke-linecap="round" stroke-linejoin="round" />
	<path d="M213.169 105.694C209.852 105.431 206.517 105.549 203.225 106.047C200.889 106.385 200.002 106.92 200.111 109.527C200.37 114.192 199.701 113.008 194.92 113.755L192.543 114.093" stroke="black" stroke-width="1.47779" stroke-linecap="round" stroke-linejoin="round" />
	<path d="M196.668 89.0205C203.281 89.2437 208.893 90.722 213.685 95.422" stroke="black" stroke-width="1.47779" stroke-linecap="round" stroke-linejoin="round" />
	<path d="M211.106 82.0856C212.601 83.149 213.984 84.4017 215.232 85.8198" stroke="black" stroke-width="1.47779" stroke-linecap="round" stroke-linejoin="round" />
	<path d="M177.589 122.628C177.087 127.098 176.585 131.495 176.042 135.965" stroke="black" stroke-width="1.47779" stroke-linecap="round" stroke-linejoin="round" />
	<path d="M188.572 127.963C187.051 132.671 186.304 137.582 186.358 142.516C187.786 142.668 190.4 142.516 191.671 143.015C191.597 146.714 191.716 150.415 192.028 154.102" stroke="black" stroke-width="1.47779" stroke-linecap="round" stroke-linejoin="round" />
	<path d="M161.605 91.1543C158.99 95.7998 157.244 100.857 156.448 106.091" stroke="black" stroke-width="1.47779" stroke-linecap="round" stroke-linejoin="round" />
	<path d="M126.541 178.108C126.652 175.109 126.009 165.838 134.671 165.838H139.947" stroke="black" stroke-width="1.47779" stroke-linecap="round" stroke-linejoin="round" />
	<path d="M75.2377 109.825C72.5705 117.231 71.3303 122.871 73.5307 125.217C74.5843 126.093 74.8643 126.362 75.9179 127.238C79.9187 130.616 82.7726 130.348 86.2134 126.207C87.5613 124.542 89.2421 123.217 91.1337 122.327C93.0253 121.437 95.0801 121.005 97.1489 121.062" stroke="black" stroke-width="1.47779" stroke-linecap="round" stroke-linejoin="round" />
	<path d="M74.4604 114.503C80.3211 115.731 79.2736 115.604 83.7421 110.892" stroke="black" stroke-width="1.47779" stroke-linecap="round" stroke-linejoin="round" />
	<path d="M67.778 125.829C67.4186 132.923 71.7716 139.058 78.9468 144.235C82.3148 146.686 83.22 145.604 84.1918 142.221C84.6577 140.633 85.097 139.058 85.523 137.469C87.6928 138.428 89.8627 139.359 91.9927 140.332" stroke="black" stroke-width="1.47779" stroke-linecap="round" stroke-linejoin="round" />
	<path d="M104.368 127.963C93.9731 130.471 90.5451 142.871 93.5584 149.835" stroke="black" stroke-width="1.47779" stroke-linecap="round" stroke-linejoin="round" />
	<path d="M66.21 136.498C71.3557 148.122 76.6349 145.792 79.1011 155.703" stroke="black" stroke-width="1.47779" stroke-linecap="round" stroke-linejoin="round" />
	<path d="M93.7974 151.435C94.7942 151.435 95.6022 150.599 95.6022 149.568C95.6022 148.537 94.7942 147.701 93.7974 147.701C92.8007 147.701 91.9927 148.537 91.9927 149.568C91.9927 150.599 92.8007 151.435 93.7974 151.435Z" fill="black" stroke="black" stroke-width="0.325113" stroke-miterlimit="10" />
	<path d="M232.506 125.829C233.503 125.829 234.311 124.993 234.311 123.962C234.311 122.931 233.503 122.095 232.506 122.095C231.509 122.095 230.701 122.931 230.701 123.962C230.701 124.993 231.509 125.829 232.506 125.829Z" fill="black" stroke="black" stroke-width="0.325113" stroke-miterlimit="10" />
	<path d="M136.596 211.716C137.593 211.716 138.401 210.88 138.401 209.849C138.401 208.817 137.593 207.981 136.596 207.981C135.599 207.981 134.791 208.817 134.791 209.849C134.791 210.88 135.599 211.716 136.596 211.716Z" fill="black" stroke="black" stroke-width="0.325113" stroke-miterlimit="10" />
	<path d="M153.096 211.716C154.093 211.716 154.901 210.88 154.901 209.849C154.901 208.817 154.093 207.981 153.096 207.981C152.1 207.981 151.292 208.817 151.292 209.849C151.292 210.88 152.1 211.716 153.096 211.716Z" fill="black" stroke="black" stroke-width="0.325113" stroke-miterlimit="10" />
	<path d="M101.79 258.66L103.852 243.19" stroke="black" stroke-width="1.47779" stroke-linecap="round" stroke-linejoin="round" />
	<path fill-rule="evenodd" clip-rule="evenodd" d="M169.138 145.484L149.07 170.503C147.709 172.29 146.852 174.412 148.92 176.227L152.648 180.053L154.947 182.412L156.09 183.613C156.178 182.037 156.595 180.499 157.314 179.104C159.491 175.892 164.403 178.308 164.253 183.585C166.621 181.617 169.138 183.739 170.281 186.81C170.794 188.183 170.981 189.662 170.825 191.124C172.607 188.095 175.668 189.309 177.11 192.269C177.586 193.272 177.85 194.366 177.886 195.48C177.906 195.875 177.906 196.272 177.886 196.667C177.886 197.197 177.709 197.756 177.6 198.328L177.042 201.358C176.981 201.939 177.035 202.527 177.201 203.086C177.367 203.645 177.642 204.164 178.008 204.611L176.648 206.915L190.566 186.936L202.988 179.131L209.56 174.943L203.981 169.219L191.165 156.067L179.6 144.2L178.24 143.474C174.716 141.394 171.682 142.343 169.138 145.484Z" fill="black" />
	<path fill-rule="evenodd" clip-rule="evenodd" d="M67.0588 64.4824C80.8135 74.5766 76.5636 88.0962 80.5556 102.972C81.2882 105.608 82.3277 108.143 83.6514 110.522C85.0664 113.011 86.8071 115.288 88.8247 117.288C91.9334 117.447 94.8974 118.689 97.2296 120.812C99.6891 122.962 102.024 125.258 104.222 127.69C105.374 128.893 106.609 130.01 107.916 131.032L114.189 134.974C119.525 135.589 123.327 135.855 127.088 136.498L129.804 132.472C128.989 130.123 129.437 126.879 132.126 123.776L140.979 113.528C140.082 112.884 139.2 112.129 138.263 111.472C135.095 108.965 131.741 106.271 128.201 103.391C128.201 103.391 128.12 103.391 128.12 103.321L119.702 96.5546C114.759 92.5701 109.491 88.3898 103.842 84.1396L69.4621 58.7083C65.959 56.1637 64.3432 62.0078 67.0588 64.4824Z" fill="url(#paint1_linear_1006_14104)" />
	<path d="M244.175 322.603C246.199 328.71 248.606 334.672 251.382 340.453L254.837 347.885C257.021 352.133 258.686 356.645 259.795 361.318C260.252 363.907 260.523 366.526 260.608 369.156M245.977 383.403C240.449 384.468 234.637 384.356 229.855 381.496C222.905 377.429 222.173 375.41 220.033 362.159C218.787 361.388 217.54 360.673 216.28 359.916C209.845 356.593 209.994 355.373 209.073 347.534C208.815 345.361 208.707 343.58 209.737 342.543C208.666 337.831 211.091 335.167 210.143 330.245C209.019 324.924 207.381 319.733 205.252 314.751C202.313 307.404 199.183 300.168 196.054 292.905L190.499 279.921C177.845 263.663 167.078 245.926 158.418 227.072L157.537 225.67M112.369 356.649C102.466 357.672 99.3093 359.537 90.7743 363.267C78.1478 368.876 63.9498 369.703 55.9025 363.043V356.761C55.9025 354.055 55.7128 354.7 57.5553 352.765C60.6848 344.351 67.4181 343.047 76.8608 339.472C81.1773 333.77 85.862 328.378 90.8827 323.333L93.8225 284.576C89.853 273.835 92.8336 264.048 99.052 258.495L100.231 242.804L98.4287 242.426C93.4161 241.36 90.991 241.318 91.6549 234.433L94.2289 214.214C94.7166 210.4 96.1121 209.867 99.499 209.867H103.428L107.804 188.245C105.094 187.488 106.083 177.027 107.953 176.018C108.942 167.38 109.308 163.118 112.017 154.859L109.809 153.793L106.435 154.747C104.253 155.821 101.937 156.576 99.5532 156.99M76.1969 154.592C66.998 149.909 64.7491 140.164 66.5916 129.914M73.7313 112.022C75.7299 108.804 78.0851 105.839 80.749 103.188C79.6713 98.6908 78.9598 94.1083 78.622 89.4883M71.0488 67.7683C69.9027 66.5675 68.6559 65.4741 67.3232 64.5012C64.6137 62.0193 66.2258 56.1581 69.6534 58.7101L104.037 84.146C107.899 80.1076 114.117 75.4664 121.514 74.2044C144.762 82.3231 171.641 79.4626 191.664 73.5594C206.309 77.7659 221.645 82.8139 234.664 97.5089M225.249 259.056C226.021 262.758 226.726 266.445 227.525 270.063M230.221 170.802L234.963 171.25L245.299 181.613V200.43L231.833 220.986L217.825 231.909C219.028 234.822 220.081 237.799 220.981 240.827L230.221 170.802Z" stroke="white" stroke-width="1.47779" stroke-linecap="round" stroke-linejoin="round" />
	<path fill-rule="evenodd" clip-rule="evenodd" d="M225.477 89.1608C228.659 91.683 231.616 94.5022 234.312 97.5838C235.506 99.0783 236.444 100.779 237.083 102.609L237.404 109.853L231.729 117.294L220.538 115.89L213.162 107.2L212.653 96.7977L219.346 88.4869L225.477 89.1608Z" fill="white" stroke="black" stroke-width="1.47779" stroke-linecap="round" stroke-linejoin="round" />
	<path fill-rule="evenodd" clip-rule="evenodd" d="M154.952 182.222L156.096 183.432C156.183 181.844 156.601 180.295 157.321 178.89C159.499 175.656 164.414 178.088 164.264 183.404C166.633 181.421 169.152 183.558 170.295 186.652C170.81 188.035 170.996 189.524 170.84 190.997C172.624 187.946 175.687 189.169 177.13 192.15C177.767 193.528 178.021 195.061 177.865 196.579C177.579 199.321 175.945 202.105 178.015 204.594L176.653 206.914L190.581 186.792L201.309 180.001L167.45 147.167L149.07 170.228C147.709 172.028 146.851 174.165 148.921 175.993L152.651 179.846L154.952 182.222Z" fill="black" />
	<path d="M79.1011 120.44C94.2621 111.24 99.3698 124.491 107.977 131.145C98.032 136.18 97.0456 149.853 106.369 154.636" stroke="white" stroke-width="1.47779" stroke-linecap="round" stroke-linejoin="round" />
	<path d="M201.5 140.232C188.255 117.371 185.647 78.6057 215.232 82.3364" stroke="white" stroke-width="1.47779" stroke-linecap="round" stroke-linejoin="round" />
	<path d="M215.748 97.5557L216.271 105.374L222.184 112.061L231.102 113.559L235.858 108.032V99.1673" stroke="black" stroke-width="1.47779" stroke-linecap="round" stroke-linejoin="round" />
	<path fill-rule="evenodd" clip-rule="evenodd" d="M93.7309 217.301L91.5734 234.35C90.9453 241.291 93.3895 241.334 98.4009 242.408L100.217 242.79V242.861C101.583 242.988 102.88 243.256 104.027 243.398L104.887 243.525L109.188 244.091C112.479 244.67 114.65 243.822 115.674 240.104C116.234 238.068 116.671 236.188 117.04 234.35C116.74 234.265 116.412 234.152 116.084 234.081C112.739 233.148 115.033 225.514 117.6 226.278C117.9 226.363 118.228 226.476 118.528 226.546C118.897 224.398 119.266 222.136 119.716 219.647C119.876 218.972 119.877 218.267 119.721 217.591C119.564 216.914 119.253 216.287 118.815 215.76C116.766 213.872 114.467 212.296 111.988 211.08C110.131 210.204 107.208 210.006 103.344 209.582H99.5206C96.1069 209.582 94.7004 210.119 94.2088 213.964L93.7309 217.301Z" fill="white" />
	<path d="M231.217 113.559L231.732 117.294" stroke="white" stroke-width="1.47779" stroke-miterlimit="10" />
	<path d="M222.451 111.959L220.388 115.693" stroke="black" stroke-width="1.47779" stroke-miterlimit="10" />
	<path d="M213.169 107.158L216.263 105.558" stroke="black" stroke-width="1.47779" stroke-miterlimit="10" />
	<path fill-rule="evenodd" clip-rule="evenodd" d="M156.177 1C181.398 1 201.825 20.964 201.825 45.6238C201.805 55.9643 198.178 65.9495 191.611 73.7421C171.483 79.661 144.592 82.5291 121.285 74.3888C114.415 66.4859 110.596 56.2414 110.556 45.6097C110.556 21.0062 130.983 1 156.177 1Z" fill="url(#paint2_linear_1006_14104)" stroke="black" stroke-width="1.47779" stroke-linecap="round" stroke-linejoin="round" />
	<path fill-rule="evenodd" clip-rule="evenodd" d="M233.149 286.4C275.207 254.471 285.942 205.876 274.206 154.939C272.822 149.019 270.98 143.225 268.696 137.613C255.065 104.394 232.053 74.3449 196.479 66.6152C196.032 67.4429 195.22 68.7756 194.272 70.2346C201.325 74.7658 151.848 86.8724 143.402 86.4936C131.896 86.0026 125.939 80.1387 117.005 75.4111L121.973 74.2608C120.17 72.1615 118.51 69.935 117.005 67.5972C108.071 69.1684 104.985 75.9442 107.042 80.9384C112.159 93.3115 144.498 93.1572 160.891 91.4036C162.434 91.2493 163.828 91.0669 165.047 90.9126C177.758 88.784 190.284 85.5986 202.502 81.3873C207.917 79.4794 209.406 79.297 214.374 81.8081C221.087 85.1492 227.213 89.63 232.499 95.0651C234.763 97.4487 236.736 100.111 238.374 102.991C243.503 110.915 247.908 119.317 251.532 128.088C273.475 180.162 264.689 216.987 235.545 248.649C252.669 236.725 253.63 269.439 233.149 286.4Z" fill="url(#paint3_linear_1006_14104)" stroke="black" stroke-width="1.47779" stroke-linecap="round" stroke-linejoin="round" />
	<path d="M80.6484 102.89C82.1058 108.372 84.9553 113.347 88.8988 117.294" stroke="white" stroke-width="1.47779" stroke-miterlimit="10" />
	<path fill-rule="evenodd" clip-rule="evenodd" d="M126.025 138.406L133.701 153.254L137 156.718C140.03 159.872 140.541 161.05 139.962 164.486C138.939 170.347 137 169.772 141.242 174.188L142.588 175.591C143.446 176.422 144.549 176.927 145.718 177.024C146.886 177.121 148.052 176.803 149.025 176.123C146.978 174.301 147.786 172.169 149.173 170.375L169.036 145.248C171.554 142.093 174.557 141.14 177.991 143.299L179.337 144.028C180.172 142.233 180.913 140.873 178.745 138.546L149.24 112.424C146.466 110.377 142.669 111.821 140.986 113.686L132.206 123.964C129.513 127.048 129.095 130.329 129.903 132.685L126.025 138.406ZM145.807 147.015L147.409 148.417C147.991 148.968 148.343 149.733 148.391 150.55C148.439 151.367 148.178 152.172 147.665 152.792L145.362 155.498C144.83 156.097 144.096 156.46 143.313 156.509C142.53 156.559 141.759 156.292 141.161 155.764L139.585 154.278C139.292 154.012 139.052 153.687 138.88 153.324C138.708 152.96 138.607 152.565 138.584 152.16C138.56 151.756 138.614 151.351 138.742 150.968C138.87 150.585 139.069 150.233 139.329 149.931L141.632 147.239C141.889 146.933 142.201 146.684 142.552 146.507C142.903 146.329 143.284 146.227 143.674 146.206C144.063 146.185 144.453 146.246 144.819 146.385C145.185 146.524 145.521 146.738 145.807 147.015Z" fill="#FF5E18" stroke="black" stroke-width="1.47779" stroke-linecap="round" stroke-linejoin="round" />
	<path fill-rule="evenodd" clip-rule="evenodd" d="M172.541 212.915L172.433 227.949L183.158 241.056L182.279 223.716L200.049 197.22L226.557 179.768L245.139 181.483L234.969 170.95H230.384L216.725 170.106L190.542 186.785L172.541 212.915Z" fill="#FF5E18" stroke="white" stroke-width="1.47779" stroke-linejoin="round" />
	<path d="M179.652 143.967L209.56 174.907" stroke="white" stroke-width="1.47779" stroke-miterlimit="10" />
	<path d="M149.229 175.974L155.932 183.442" stroke="white" stroke-width="1.47779" stroke-miterlimit="10" />
	<path d="M159.542 121.212C178.693 119.815 191.126 126.383 201.825 140.232" stroke="black" stroke-width="1.47779" stroke-linecap="round" stroke-linejoin="round" />
	<path d="M151.292 114.093C156.327 107.583 161.58 100.93 168.308 95.9554" stroke="black" stroke-width="1.47779" stroke-linecap="round" stroke-linejoin="round" />
	<path d="M107.978 174.907C110.155 170.56 113.34 165.61 117.259 162.638" stroke="black" stroke-width="1.47779" stroke-linecap="round" stroke-linejoin="round" />
	<path fill-rule="evenodd" clip-rule="evenodd" d="M165.73 113.64L166.949 117.949L184.921 118.894L186.871 102.73L185.802 95.7117L182.389 95.6422L181.061 93.8215L172.461 93.8632L171.621 95.6422L168.493 95.7534L165.73 113.64Z" fill="white" stroke="black" stroke-width="1.47779" stroke-linecap="round" stroke-linejoin="round" />
	<path d="M165.73 113.974L182.537 114.626L183.778 102.89" stroke="black" stroke-width="1.47779" stroke-linecap="round" stroke-linejoin="round" />
	<path d="M171.35 95.4219L169.855 107.799L180.225 108.225L181.199 99.429" stroke="black" stroke-width="1.47779" stroke-linecap="round" stroke-linejoin="round" />
	<path d="M169.339 95.4219L179.652 87.9535" stroke="black" stroke-width="1.47779" stroke-linecap="round" stroke-linejoin="round" />
	<path d="M107.978 188.243C124.35 190.795 140.904 192.043 157.48 191.975" stroke="white" stroke-width="1.47779" stroke-miterlimit="10" />
	<path d="M145.104 167.972L165.178 142.419C168.443 138.219 173.06 135.572 178.105 137.897" stroke="black" stroke-width="1.47779" stroke-miterlimit="10" />
	<path fill-rule="evenodd" clip-rule="evenodd" d="M118.405 153.569C117.178 154.405 115.965 155.27 114.738 156.148C114.365 156.465 114.072 156.869 113.884 157.326C113.697 157.783 113.62 158.28 113.66 158.774C113.7 159.268 113.856 159.745 114.115 160.164C114.374 160.583 114.728 160.932 115.147 161.181C117.219 162.576 119.469 164.514 121.623 165.838C122.522 164.347 123.069 162.662 123.219 160.917C123.996 159.745 124.732 158.532 125.509 157.361L118.405 153.569Z" fill="black" stroke="white" stroke-width="1.47779" stroke-linecap="round" stroke-linejoin="round" />
	<path fill-rule="evenodd" clip-rule="evenodd" d="M149.073 138.422C151.083 140.281 154.237 140.089 156.006 137.999C157.688 136.013 157.484 133.05 155.546 131.313L143.982 120.948C142.058 119.223 139.101 119.381 137.371 121.301C135.655 123.206 135.789 126.137 137.672 127.879L149.073 138.422Z" fill="#121212" />
	<path d="M167.277 147.167L201.309 180.242" stroke="white" stroke-width="1.47779" stroke-miterlimit="10" />
	<path d="M129.635 132.764L131.697 134.364" stroke="black" stroke-width="1.47779" stroke-linecap="round" stroke-linejoin="round" />
	<path fill-rule="evenodd" clip-rule="evenodd" d="M129.666 46.4184C127.618 49.65 125.529 52.8397 123.48 56.0713C123.669 59.219 123.844 62.4087 123.992 65.5983C139.653 67.6548 156.338 67.431 161.096 66.2839V56.0993C152.578 56.4071 144.087 56.9387 135.152 55.8755C137.349 52.6858 140.138 48.7687 142.335 45.579C139.478 41.8997 136.729 38.5841 133.871 34.9048C143.099 33.7283 152.394 33.2235 161.689 33.394L162.12 23.4053C149.613 23.4752 135.893 24.0488 123.224 27.0426L122.416 37.2971C124.949 40.3049 127.146 43.3407 129.666 46.4184Z" fill="white" stroke="#FF5E18" stroke-width="1.47779" stroke-linecap="round" stroke-linejoin="round" />
	<path fill-rule="evenodd" clip-rule="evenodd" d="M138.916 92.1555V85.8923C128.28 85.2073 123.634 89.4154 119.837 96.5175L128.32 103.424C136.493 100.544 138.283 95.9862 138.916 92.1555Z" fill="#FF5E18" stroke="black" stroke-width="1.47779" stroke-miterlimit="10" />
	<path fill-rule="evenodd" clip-rule="evenodd" d="M146.135 86.2114C144.074 85.1816 141.7 85.0041 139.512 85.7162C138.226 87.1743 138.077 89.8429 138.957 92.264C140.501 93.901 144.767 93.3095 146.027 92.3328C145.616 90.3094 145.653 88.2185 146.135 86.2114Z" fill="#FF5E18" stroke="black" stroke-width="1.47779" stroke-linecap="round" stroke-linejoin="round" />
	<path fill-rule="evenodd" clip-rule="evenodd" d="M145.966 92.5617C145.37 90.5313 145.408 88.3603 146.075 86.3531C151.418 89.5342 153.784 91.613 152.493 100.068C150.059 115.903 125.504 111.801 145.966 92.5617Z" fill="#FF5E18" stroke="black" stroke-width="1.47779" stroke-linecap="round" stroke-linejoin="round" />
	<path d="M145.38 89.0205C148.503 94.1857 147.073 99.1783 144.588 102.89" stroke="black" stroke-width="1.47779" stroke-linecap="round" stroke-linejoin="round" />
	<path d="M138.4 90.0874C134.705 90.6859 131.286 92.361 128.603 94.8885" stroke="black" stroke-width="1.47779" stroke-linecap="round" stroke-linejoin="round" />
	<path d="M157.479 225.586C155.947 222.947 153.592 220.885 150.776 219.718" stroke="white" stroke-width="1.47779" stroke-linecap="round" stroke-linejoin="round" />
	<path d="M103.346 209.582C111.669 210.533 115.331 210.198 113.84 219.042C113.467 221.169 111.696 229.454 110.55 234.814M109.605 239.012C109.393 239.838 109.103 240.64 108.739 241.405C107.075 244.372 104.038 242.805 100.243 242.539" stroke="black" stroke-width="1.47779" stroke-linecap="round" stroke-linejoin="round" />
	<path d="M112.014 211.182C114.485 212.394 116.776 213.965 118.819 215.847C119.255 216.373 119.565 216.998 119.721 217.672C119.877 218.346 119.876 219.05 119.717 219.723C118.711 226.592 117.348 233.4 115.634 240.117C114.6 243.823 112.45 244.669 109.17 244.091L104.883 243.527" stroke="black" stroke-width="1.47779" stroke-miterlimit="10" />
	<path fill-rule="evenodd" clip-rule="evenodd" d="M117.344 226.172C130.135 229.893 140.869 232.988 151.807 238.814L148.674 245.323C138.009 240.704 127.033 236.875 115.832 233.866C112.495 232.946 114.783 225.419 117.344 226.172Z" fill="white" stroke="black" stroke-width="1.47779" stroke-miterlimit="10" />
	<path d="M95.6021 222.427C96.1257 223.606 96.6081 224.785 97.0904 225.936C98.4686 229.291 97.7244 228.828 101.225 229.179C104.725 229.53 103.981 229.403 106.531 226.694C109.08 223.985 111.63 221.318 114.165 218.651" stroke="#25211A" stroke-width="1.47779" stroke-linecap="round" stroke-linejoin="round" />
	<path d="M155.186 182.376C154.124 181.254 153.976 179.097 155.616 177.01L169.339 159.437" stroke="white" stroke-width="1.47779" stroke-linecap="round" stroke-linejoin="round" />
	<path d="M164.183 180.775L176.042 166.372" stroke="white" stroke-width="1.47779" stroke-linecap="round" stroke-linejoin="round" />
	<path d="M170.371 186.643L182.23 172.773" stroke="white" stroke-width="1.47779" stroke-linecap="round" stroke-linejoin="round" />
	<path d="M177.074 191.978L188.418 179.175" stroke="white" stroke-width="1.47779" stroke-linecap="round" stroke-linejoin="round" />
	<path d="M183.262 241.104L200.962 242.656L217.81 231.987" stroke="white" stroke-width="1.47779" stroke-linecap="round" stroke-linejoin="round" />
	<path d="M52.8032 255.993C65.4109 243.998 72.1777 236.964 81.1637 225.586" stroke="white" stroke-width="1.47779" stroke-linecap="round" stroke-linejoin="round" />
	<path d="M125.509 80.4851C137.523 83.3169 149.853 84.277 162.12 83.3362" stroke="black" stroke-width="1.47779" stroke-miterlimit="10" />
	<path fill-rule="evenodd" clip-rule="evenodd" d="M167.538 25.7883L156.964 26.0725L157.473 20.7379H167.792L167.538 25.7883Z" fill="#25211A" />
	<path fill-rule="evenodd" clip-rule="evenodd" d="M152.586 64.2541C145.452 64.5909 138.305 64.4887 131.182 63.948C131.315 65.6179 131.501 67.2321 131.647 68.9019C138.681 69.7324 145.766 69.9976 152.839 69.6951C152.732 67.8722 152.653 66.091 152.586 64.2541Z" fill="#25211A" />
	<path d="M114.728 104.979L88.1827 83.7742C87.9817 83.6497 87.8075 83.4835 87.671 83.2859C87.5345 83.0884 87.4387 82.8637 87.3895 82.626C87.3404 82.3883 87.3389 82.1426 87.3853 81.9042C87.4316 81.6659 87.5248 81.4401 87.6589 81.2408C87.7931 81.0415 87.9653 80.8731 88.1649 80.746C88.3645 80.6189 88.5872 80.5359 88.8191 80.5022C89.051 80.4685 89.2871 80.4848 89.5126 80.55C89.7382 80.6152 89.9483 80.728 90.13 80.8814L132.213 114.093" stroke="white" stroke-width="1.47779" stroke-linecap="round" stroke-linejoin="round" />
	<path d="M99.6355 104.073L88.3033 95.0261C88.0812 94.9135 87.8856 94.7522 87.7301 94.5532C87.5745 94.3543 87.4628 94.1226 87.4026 93.8744C87.3425 93.6261 87.3354 93.3672 87.3818 93.1158C87.4283 92.8644 87.5272 92.6266 87.6716 92.4188C87.8161 92.2111 88.0026 92.0385 88.2181 91.9132C88.4336 91.7878 88.673 91.7126 88.9194 91.693C89.1659 91.6733 89.4135 91.7095 89.645 91.7992C89.8766 91.8889 90.0864 92.0298 90.2599 92.2121L127.572 121.561M114.433 115.849L103.807 107.407L114.433 115.849Z" stroke="white" stroke-width="1.47779" stroke-linecap="round" stroke-linejoin="round" />
	<path d="M94.9135 112.216L87.2711 106.182C87.0493 106.071 86.8539 105.912 86.6985 105.716C86.543 105.52 86.4314 105.291 86.3713 105.046C86.3112 104.802 86.3041 104.546 86.3506 104.298C86.397 104.051 86.4958 103.816 86.6401 103.611C86.7844 103.406 86.9707 103.236 87.186 103.113C87.4013 102.989 87.6404 102.915 87.8866 102.896C88.1329 102.876 88.3803 102.912 88.6116 103C88.8429 103.089 89.0525 103.228 89.2258 103.407L122.416 129.03M113.226 126.658L99.1081 115.56L113.226 126.658Z" stroke="white" stroke-width="1.47779" stroke-linecap="round" stroke-linejoin="round" />
	<path fill-rule="evenodd" clip-rule="evenodd" d="M202.894 179.175L190.481 186.968L200.05 197.312L212.654 189.129L202.894 179.175Z" fill="black" stroke="white" stroke-width="1.47779" stroke-linecap="round" stroke-linejoin="round" />
	<path fill-rule="evenodd" clip-rule="evenodd" d="M226.876 170.716L216.779 170.106L226.476 179.853L236.373 180.775L226.876 170.716Z" fill="black" stroke="white" stroke-width="1.47779" stroke-linecap="round" stroke-linejoin="round" />
	<path fill-rule="evenodd" clip-rule="evenodd" d="M172.433 228.029L172.474 221.851L182.852 233.005L183.262 241.056L172.433 228.029Z" fill="black" stroke="white" stroke-width="1.47779" stroke-linecap="round" stroke-linejoin="round" />
	<path d="M107.978 131.164L114.165 135.431" stroke="white" stroke-width="1.47779" stroke-miterlimit="10" />
	<path fill-rule="evenodd" clip-rule="evenodd" d="M132.105 47.9443C126.818 48.3103 121.515 48.3103 116.228 47.9443C116.308 49.2104 116.375 50.4329 116.482 51.699C121.711 52.2252 126.968 52.3468 132.213 52.0628C132.186 50.7094 132.146 49.3269 132.105 47.9443Z" fill="white" />
	<path fill-rule="evenodd" clip-rule="evenodd" d="M133.109 28.0354L126.541 28.7398L126.837 19.7988L133.244 19.1376L133.109 28.0354Z" fill="white" />
	<path fill-rule="evenodd" clip-rule="evenodd" d="M159.474 50.6115H152.838L153.057 46.5332L159.542 46.3439L159.474 50.6115Z" fill="white" />
	<path d="M227.827 96.4889L225.135 96.6322C220.939 96.9045 223.617 101.19 226.567 101.032H227.999C230.147 100.917 232.824 105.074 229.989 105.504L226.252 106.091" stroke="#FF5E18" stroke-width="2.95557" stroke-linecap="round" stroke-linejoin="round" />
	<path d="M178.105 96.4889H176.205C174.045 96.4889 173.798 99.4723 175.88 99.4723H176.309C178.574 99.4723 178.6 102.999 175.815 102.888H173.98" stroke="#FF5E18" stroke-width="2.21668" stroke-linecap="round" stroke-linejoin="round" />
	<path d="M105.399 213.042L103.186 212.837C102.96 212.772 102.725 212.765 102.497 212.816C102.269 212.867 102.053 212.975 101.864 213.133C101.675 213.291 101.518 213.494 101.402 213.729C101.287 213.965 101.217 214.226 101.197 214.496C101.177 214.766 101.207 215.037 101.285 215.292C101.364 215.547 101.489 215.779 101.651 215.973C101.814 216.166 102.011 216.316 102.228 216.413C102.445 216.509 102.677 216.55 102.909 216.531H103.387C105.978 216.766 106.078 221.193 102.871 220.754L100.758 220.519" stroke="#FF5E18" stroke-width="2.21668" stroke-linecap="round" stroke-linejoin="round" />
	<path fill-rule="evenodd" clip-rule="evenodd" d="M126.66 178.322C120.566 177.711 114.5 176.933 107.744 175.974C105.879 177.03 104.853 187.338 107.595 188.088C113.135 189.033 118.567 189.741 123.931 190.311C127.889 190.727 131.808 191.075 135.78 191.297C142.049 191.714 148.318 191.894 154.777 191.978C155.696 191.978 156.574 191.978 157.479 191.978C156.527 190.569 155.979 188.913 155.898 187.199C155.792 185.965 155.792 184.724 155.898 183.49L154.763 182.295L152.48 179.947C143.319 179.683 135.064 179.141 126.66 178.322Z" fill="#F6F6F6" />
	<path d="M188.416 236.255L187.387 224.85L203.483 202.222L227.783 186.643L238.951 187.62" stroke="#25211A" stroke-width="1.47779" stroke-linecap="round" stroke-linejoin="round" />
	<path fill-rule="evenodd" clip-rule="evenodd" d="M200.827 242.656L183.11 241.093L182.23 223.725L200.015 197.188L226.543 179.708L245.139 181.427V200.287L231.699 220.936L217.691 231.909L200.827 242.656Z" fill="url(#paint4_linear_1006_14104)" stroke="black" stroke-width="1.47779" stroke-linecap="round" stroke-linejoin="round" />
	<path fill-rule="evenodd" clip-rule="evenodd" d="M194.899 236.13C193.068 236.046 191.265 235.976 189.476 235.864C189.109 232.054 188.784 228.258 188.418 224.42L204.579 201.742L228.876 186.11C232.632 186.46 236.347 186.796 240.062 187.104C240.062 190.788 240.062 194.444 240.062 198.1C239.329 199.347 238.557 200.607 237.811 201.854C230.557 213.956 236.197 224.686 243.817 213.466C247.573 207.989 252.915 210.665 253.389 214.867C246.949 213.466 246.325 219.587 241.024 227.474C234.353 237.279 220.551 233.329 207.779 229.421C205.068 230.401 204.715 231.886 205.068 236.228C203.264 236.452 199.4 235.234 198.777 233.105L194.899 236.13Z" fill="url(#paint5_linear_1006_14104)" stroke="#FF5E18" stroke-width="1.47779" stroke-linecap="round" stroke-linejoin="round" />
	<path d="M103.853 84.2192C118.515 95.2891 123.492 100.33 133.76 108.225" stroke="white" stroke-width="1.47779" stroke-linejoin="round" />
	<path d="M114.165 176.507C123.431 177.748 131.928 178.633 140.979 179.175" stroke="black" stroke-width="1.47779" stroke-linecap="round" stroke-linejoin="round" />
	<path fill-rule="evenodd" clip-rule="evenodd" d="M114.078 135.431C121.874 136.299 126.376 136.478 132.22 138.186C136.789 139.412 138.552 140.279 139.921 141.767C141.675 144.012 143.24 146.403 144.599 148.915C146.172 152.62 143.826 155.719 140.951 153.887C139.608 152.835 138.318 151.713 137.087 150.527C137.302 151.392 137.284 152.3 137.033 153.155C136.783 154.01 136.31 154.781 135.665 155.386C135.019 155.991 134.225 156.407 133.366 156.592C132.506 156.777 131.614 156.723 130.782 156.435C131.555 161.063 125.671 164.355 122.647 160.209C121.365 158.515 119.675 157.187 117.739 156.353C114.954 155.702 112.232 154.804 109.603 153.667C105.861 149.494 106.824 138.392 114.078 135.431Z" fill="white" stroke="black" stroke-width="1.47779" stroke-linecap="round" stroke-linejoin="round" />
	<path d="M131.181 156.236C130.342 154.877 129.302 153.621 128.087 152.502" stroke="black" stroke-width="1.47779" stroke-linecap="round" stroke-linejoin="round" />
	<path d="M137.369 150.368C136.718 149.196 135.848 148.116 134.791 147.167" stroke="black" stroke-width="1.47779" stroke-linecap="round" stroke-linejoin="round" />
	<path fill-rule="evenodd" clip-rule="evenodd" d="M161.851 194.006C157.904 194.159 156.369 190.738 155.999 187.261C155.779 185.208 156.081 180.767 157.273 179.021C159.466 175.81 164.414 178.225 164.263 183.504C167.73 180.711 171.445 186.381 170.883 191.045C173.377 186.758 178.517 190.892 177.955 196.631C177.667 199.354 176.022 202.119 178.105 204.591L176.735 206.895C174.611 206.979 170.705 207.049 169.403 201.17C165.414 201.966 162.289 197.678 161.851 194.006Z" fill="white" stroke="black" stroke-width="1.47779" stroke-linecap="round" stroke-linejoin="round" />
	<path d="M164.183 183.442C162.437 185.514 162.12 190.451 162.12 194.112" stroke="black" stroke-width="1.47779" stroke-miterlimit="10" />
	<path d="M170.886 190.911C169.479 194.026 169.014 197.593 169.565 201.046" stroke="black" stroke-width="1.47779" stroke-linecap="round" stroke-linejoin="round" />
	<path fill-rule="evenodd" clip-rule="evenodd" d="M172.433 212.76L181.475 199.979L190.996 210.783L182.297 223.452L172.433 212.76Z" fill="black" stroke="white" stroke-width="1.47779" stroke-linecap="round" stroke-linejoin="round" />
	<path d="M235.347 248.65C252.576 236.726 253.5 269.439 232.942 286.4C266.191 261.261 279.983 225.755 278.556 186.897C278.114 176.121 276.64 165.417 274.154 154.941M256.707 113.922C245.497 95.4047 230.51 79.8333 211.106 71.4164" stroke="white" stroke-width="1.47779" stroke-linecap="round" stroke-linejoin="round" />
	<path d="M114.995 65.0149C112.078 59.0194 110.557 52.3946 110.556 45.6754C110.556 20.9872 130.857 1.00017 156.017 1.00017C163.711 0.979226 171.293 2.91189 178.105 6.63031" stroke="white" stroke-width="1.47779" stroke-linecap="round" stroke-linejoin="round" />
	<path d="M208.786 215.983C211.492 215.983 213.685 213.834 213.685 211.182C213.685 208.531 211.492 206.381 208.786 206.381C206.081 206.381 203.888 208.531 203.888 211.182C203.888 213.834 206.081 215.983 208.786 215.983Z" fill="#FF5E18" stroke="#FF5E18" stroke-width="1.47779" stroke-miterlimit="10" />
	<path d="M221.677 223.985C222.674 223.985 223.482 223.149 223.482 222.118C223.482 221.087 222.674 220.251 221.677 220.251C220.681 220.251 219.873 221.087 219.873 222.118C219.873 223.149 220.681 223.985 221.677 223.985Z" fill="#FF5E18" stroke="#FF5E18" stroke-width="1.47779" stroke-miterlimit="10" />
	<path d="M215.49 240.522C219.334 240.522 222.451 237.537 222.451 233.854C222.451 230.171 219.334 227.186 215.49 227.186C211.645 227.186 208.528 230.171 208.528 233.854C208.528 237.537 211.645 240.522 215.49 240.522Z" fill="#FF5E18" stroke="#FF5E18" stroke-width="1.47779" stroke-miterlimit="10" />
	<path d="M190.997 155.703C193.276 149.883 196.881 144.682 201.522 140.518C208.559 138.63 215.977 138.72 222.967 140.777" stroke="white" stroke-width="1.47779" stroke-linecap="round" stroke-linejoin="round" />
	<defs>
		<linearGradient id="paint0_linear_1006_14104" x1="95.8084" y1="306.153" x2="301.106" y2="88.1659" gradientUnits="userSpaceOnUse">
			<stop stop-color="#FF5E18" />
			<stop offset="1" stop-color="#121212" />
		</linearGradient>
		<linearGradient id="paint1_linear_1006_14104" x1="63.9237" y1="131.155" x2="40.9186" y2="126.933" gradientUnits="userSpaceOnUse">
			<stop />
			<stop offset="1" stop-color="#EDDCB9" />
		</linearGradient>
		<linearGradient id="paint2_linear_1006_14104" x1="195.346" y1="13.1816" x2="113.154" y2="59.2208" gradientUnits="userSpaceOnUse">
			<stop stop-color="#FF5E18" />
			<stop offset="1" stop-color="#121212" />
		</linearGradient>
		<linearGradient id="paint3_linear_1006_14104" x1="192.543" y1="66.6152" x2="192.543" y2="286.4" gradientUnits="userSpaceOnUse">
			<stop stop-color="#FF5E18" />
			<stop offset="1" stop-color="#121212" />
		</linearGradient>
		<linearGradient id="paint4_linear_1006_14104" x1="159.192" y1="258.299" x2="190.667" y2="248.97" gradientUnits="userSpaceOnUse">
			<stop stop-color="white" />
			<stop offset="1" />
		</linearGradient>
		<linearGradient id="paint5_linear_1006_14104" x1="199.916" y1="200.445" x2="233.47" y2="231.57" gradientUnits="userSpaceOnUse">
			<stop stop-color="#FF5E18" />
			<stop offset="1" stop-color="#121212" />
		</linearGradient>
	</defs>
</svg>
