<svg width="36" height="36" viewBox="0 0 36 36" fill="none" xmlns="http://www.w3.org/2000/svg">
	<path fill-rule="evenodd" clip-rule="evenodd" d="M17.379 25.2209L11.3765 22.4925C10.8408 22.249 10.4968 21.7149 10.4968 21.1264V14.8737C10.4968 14.2853 10.8408 13.7511 11.3765 13.5076L18 10.4969L24.6234 13.5076C25.1591 13.7511 25.5031 14.2853 25.5031 14.8737V21.1264C25.5031 21.7149 25.1591 22.249 24.6234 22.4925L18.6209 25.2209C18.2264 25.4003 17.7735 25.4003 17.379 25.2209Z" stroke="white" stroke-width="1.2" stroke-linecap="round" stroke-linejoin="round" />
	<path d="M4.57324 24.7852L10.7636 21.9713" stroke="white" stroke-width="1.2" stroke-linecap="round" stroke-linejoin="round" />
	<path d="M25.2378 21.972L31.4268 24.7852" stroke="white" stroke-width="1.2" stroke-linecap="round" stroke-linejoin="round" />
	<path d="M18.0001 4.49438V10.4969" stroke="white" stroke-width="1.2" stroke-linecap="round" stroke-linejoin="round" />
	<rect x="4.49438" y="4.49438" width="27.0113" height="27.0113" rx="5.39124" stroke="white" stroke-width="1.2" stroke-linecap="round" stroke-linejoin="round" />
	<path d="M10.7637 14.0288L18.0001 17.318" stroke="white" stroke-width="1.2" stroke-linecap="round" stroke-linejoin="round" />
	<path d="M25.2364 14.0288L18 17.318" stroke="white" stroke-width="1.2" stroke-linecap="round" stroke-linejoin="round" />
	<path d="M18.0001 17.318V25.3554" stroke="white" stroke-width="1.2" stroke-linecap="round" stroke-linejoin="round" />
</svg>
