<svg width="36" height="36" viewBox="0 0 36 36" fill="none" xmlns="http://www.w3.org/2000/svg">
	<circle cx="12.4114" cy="26.7764" r="4.31299" stroke="white" stroke-width="1.2" stroke-linecap="round" stroke-linejoin="round" />
	<path d="M8.09839 15.275V14.1768C8.09838 12.2066 9.21152 10.4055 10.9737 9.52438L12.3242 8.17392C13.3005 7.19756 14.6248 6.64905 16.0055 6.64905C17.3863 6.64905 18.7106 7.19756 19.6869 8.17392L21.0374 9.52438C22.7996 10.4055 23.9127 12.2066 23.9127 14.1768V15.275" stroke="white" stroke-width="1.2" stroke-linecap="round" stroke-linejoin="round" />
	<path d="M21.7788 26.08L24.755 29.0562C25.1363 29.4375 25.6535 29.6517 26.1927 29.6517V29.6517C26.7319 29.6517 27.2491 29.4375 27.6303 29.0562C28.0116 28.6749 28.2258 28.1578 28.2258 27.6186V13.9386C28.2258 12.9772 28.7063 12.0794 29.5062 11.5462L32.5388 9.52441" stroke="white" stroke-width="1.2" stroke-linecap="round" stroke-linejoin="round" />
	<path d="M16.7245 26.7763H19.924C20.6916 26.7763 21.4273 26.4694 21.9673 25.924L27.3385 20.4987C27.9069 19.9246 28.2258 19.1493 28.2258 18.3414V18.3414C28.2258 17.5281 27.9027 16.7482 27.3277 16.1731C26.7526 15.5981 25.9727 15.275 25.1594 15.275H7.33417C6.16828 15.275 5.22314 16.2202 5.22314 17.386V17.386C5.22315 17.8799 5.39628 18.3581 5.71242 18.7375L9.66294 23.4781" stroke="white" stroke-width="1.2" stroke-linecap="round" stroke-linejoin="round" />
</svg>
