<svg width="36" height="36" viewBox="0 0 36 36" fill="none" xmlns="http://www.w3.org/2000/svg">
	<path fill-rule="evenodd" clip-rule="evenodd" d="M15 31.5H7.5C5.8425 31.5 4.5 30.1575 4.5 28.5V21C4.5 19.3425 5.8425 18 7.5 18H15C16.6575 18 18 19.3425 18 21V28.5C18 30.1575 16.6575 31.5 15 31.5Z" stroke="white" stroke-width="1.2" stroke-linecap="round" stroke-linejoin="round" />
	<path d="M19.5 10.5H25.5V16.5" stroke="white" stroke-width="1.2" stroke-linecap="round" stroke-linejoin="round" />
	<path d="M17.115 18.885L25.5 10.5" stroke="white" stroke-width="1.2" stroke-linecap="round" stroke-linejoin="round" />
	<path d="M24 31.5H28.5C30.1575 31.5 31.5 30.1575 31.5 28.5V7.5C31.5 5.8425 30.1575 4.5 28.5 4.5H7.5C5.8425 4.5 4.5 5.8425 4.5 7.5V12" stroke="white" stroke-width="1.2" stroke-linecap="round" stroke-linejoin="round" />
</svg>
