<svg width="36" height="36" viewBox="0 0 36 36" fill="none" xmlns="http://www.w3.org/2000/svg">
	<path fill-rule="evenodd" clip-rule="evenodd" d="M30 19.5313C30 25.1934 23.0327 29.3995 19.7102 31.0883C18.6382 31.6363 17.3684 31.6375 16.2955 31.0913C12.9752 29.4041 6 25.1877 6 19.5313V11.3541C6.01103 10.5878 6.59134 9.94986 7.35315 9.86655C10.536 9.62468 13.5875 8.49618 16.1619 6.60891C17.2528 5.79703 18.7471 5.79703 19.838 6.60891C22.4124 8.49618 25.4639 9.62468 28.6468 9.86655C29.4086 9.94983 29.989 10.5878 30 11.3541V19.5313Z" stroke="white" stroke-width="1.2" stroke-linecap="round" stroke-linejoin="round" />
	<path d="M20.4 17.25L17.4016 20.25L15.6 18.45" stroke="white" stroke-width="1.2" stroke-linecap="round" stroke-linejoin="round" />
</svg>
