<svg width="36" height="36" viewBox="0 0 36 36" fill="none" xmlns="http://www.w3.org/2000/svg">
	<path d="M2.25 16.875L4.5 14.625L6.75 16.875" stroke="white" stroke-width="0.9" stroke-linecap="round" stroke-linejoin="round" />
	<path d="M33.75 19.125L31.5 21.375L29.25 19.125" stroke="white" stroke-width="0.9" stroke-linecap="round" stroke-linejoin="round" />
	<path d="M7.01685 10.185C9.46485 6.7515 13.4623 4.5 17.9998 4.5C25.4548 4.5 31.4998 10.545 31.4998 18C31.4998 19.026 31.3753 20.022 31.1593 20.982" stroke="white" stroke-width="0.9" stroke-linecap="round" stroke-linejoin="round" />
	<path d="M28.9828 10.1851C25.5298 11.3461 21.8443 12.0001 17.9998 12.0001C14.1553 12.0001 10.4698 11.3461 7.01685 10.1851" stroke="white" stroke-width="0.9" stroke-linecap="round" stroke-linejoin="round" />
	<path d="M28.9769 25.809C26.5304 29.2425 22.5329 31.494 17.9939 31.494C10.5389 31.494 4.4939 25.449 4.4939 17.994C4.4939 16.968 4.6184 15.972 4.8344 15.012" stroke="white" stroke-width="0.9" stroke-linecap="round" stroke-linejoin="round" />
	<path d="M7.01245 25.809C10.4655 24.648 14.151 23.994 17.9955 23.994C21.84 23.994 25.5255 24.648 28.9785 25.809" stroke="white" stroke-width="0.9" stroke-linecap="round" stroke-linejoin="round" />
	<path fill-rule="evenodd" clip-rule="evenodd" d="M18 31.5C21.1066 31.5 23.625 25.4558 23.625 18C23.625 10.5442 21.1066 4.5 18 4.5C14.8934 4.5 12.375 10.5442 12.375 18C12.375 25.4558 14.8934 31.5 18 31.5Z" stroke="white" stroke-width="0.9" stroke-linecap="round" stroke-linejoin="round" />
</svg>
